<?xml version="1.0" encoding="utf-8"?>
<!-- Generator: Adobe Illustrator 19.0.0, SVG Export Plug-In . SVG Version: 6.00 Build 0)  -->
<svg version="1.1" id="Layer_1" xmlns="http://www.w3.org/2000/svg" xmlns:xlink="http://www.w3.org/1999/xlink" x="0px" y="0px"
	 viewBox="0 105.1 1280 591.9" style="enable-background:new 0 105.1 1280 591.9;" xml:space="preserve">
<style type="text/css">
	.st0{fill:#8EA8BB;}
	.st1{fill:#788F9E;}
	.st2{fill:#826434;}
	.st3{fill:#7E96A6;}
</style>
<path id="XMLID_414_" class="st0" d="M530,537.9c-22-20-53.8-46.3-60.8-52.4c-11.4-9.9-19.6-12.1-26.9-6.6s-30,7.7-30,7.7
	S382.7,464,376,453.5c-7.3-11.3-11.4-16.4-13.6-18.7c-1.3-1.3-3.1-1.6-4.6-0.8c-4.5,2.2-9.1,5.8-14.9,8.5
	c-5.9,2.7-33.2-44.1-40.5-46.3c-7.3-2.2-13.5,17.6-29.1,28.6c-15.6,11-8.3,9.9-24.9,25.3s-17.6,24.2-32.2,16.5
	c-14.5-7.7-22.8-2.2-30.1,3.3s-9.3,5.5-13.5,7.7s-16.6-6.6-24.9-13.2c-8.3-6.6-46.7,20.9-72.6,32c-16,6.8-63.1,23.5-98.1,35.5v83.9
	c122,3.2,553,7.3,553,7.3s0-0.1,0-0.2V537.9z"/>
<path id="XMLID_1_" class="st0" d="M357,535.5c23-19.7,53.9-45.5,61-51.5c11.4-9.7,19.7-11.9,26.9-6.5c7.3,5.4,30.1,7.6,30.1,7.6
	s29.6-22.2,36.3-32.5c7.3-11.1,11.4-16.1,13.6-18.4c1.3-1.3,3.1-1.6,4.6-0.8c4.5,2.2,9.1,5.7,14.9,8.3c5.9,2.7,33.2-43.3,40.5-45.5
	s13.5,17.3,29.1,28.2c15.6,10.8,8.3,9.7,24.9,24.9c16.6,15.2,17.6,23.8,32.2,16.2c14.5-7.6,22.8-2.2,30.1,3.2s9.3,5.4,13.5,7.6
	c4.2,2.2,16.6-6.5,24.9-13c8.3-6.5,46.6,20.6,72.5,31.4c16,6.7,63.9,23.1,97.9,34.9v82.5c-121,3.2-553,7.2-553,7.2s0-0.1,0-0.2
	V535.5z"/>
<path id="XMLID_416_" class="st1" d="M-23,529.8c6.6-8.3,53.2-53.5,59.4-44.7s5.8,17.1,14.6,21.2s12.4-3.2,20.4-5.1
	c8-1.8,16.4,6.5,19.9,8.8c3.5,2.3,13.3,7.8,15.1,9.7c1.8,1.8-25.2,27.2-24.8,21.7c0.4-5.5,5.3-23.5-1.3-20.3
	c-6.6,3.2-6.2,6.9-15.5,11.5s-15.5,0.5-25.7,6.5s-11.1,7.8-19.5,18c-8.5,10.1-20.9,23-20.5,17s31-52.6,26.6-54.9
	c-4.4-2.3-27.5,13.4-38.1,18.4S-23,529.8-23,529.8z"/>
<path id="XMLID_4_" class="st2" d="M661.7,530.9c6.2-10.7,32.9-78.7,34.4-74.4s-1.8,16.1,3,13.6s7.3-9.5,10.1-6.4
	c2.9,3.1,6.4,4.9,8.1,8.1c1.7,3.3,3.9,10.9,6.9,8s11.4-8.5,12.4-5.1s-0.2,2.9-1.9,11s-8.4,21.4-11.7,29.2c-3.2,7.7-7.7,20.1-8.6,18
	c-0.9-2.1,4-30.1,4.8-35.6s-3.4-9.7-7.5-3.5c-4.1,6.3-11.7,13.3-12.6,11.2c-0.9-2.1-4.8-6.4-4.1-9.9c0.7-3.6,4.1-5.9,0.7-3.6
	s-2.1-1.9-8.5,7.5s-12.9,17.6-17.8,26.5c-4.9,8.9-7,11.4-8.1,10C660.3,534,661.7,530.9,661.7,530.9z"/>
<path id="XMLID_3_" class="st2" d="M593.4,513.8c-9-9.8-17.7-36.8-27.5-41.8c-9.8-5.1-15.5-4.8-23.4-7.3s-21.8,5.3-17,12.9
	c4.9,7.6,10.3-0.4,17,7.9c6.8,8.2,3.4,17,0,10.3s-3.5-0.7-2,0.3s18.3,31.7,21.7,35.2s5.5-40.3,10-33s10.2,12.7,17.3,18.1
	C596.6,521.8,593.4,513.8,593.4,513.8z"/>
<path id="XMLID_14_" class="st0" d="M837,500.9c22-20,53.8-46.3,60.8-52.4c11.4-9.9,19.6-12.1,26.9-6.6c7.3,5.5,30,7.7,30,7.7
	s29.6-22.6,36.3-33.1c7.3-11.3,11.4-16.4,13.6-18.7c1.3-1.3,3.1-1.6,4.6-0.8c4.5,2.2,9.1,5.8,14.9,8.5c5.9,2.7,33.2-44.1,40.5-46.3
	c7.3-2.2,13.5,17.6,29.1,28.6c15.6,11,8.3,9.9,24.9,25.3s17.6,24.2,32.2,16.5c14.5-7.7,22.8-2.2,30.1,3.3c7.3,5.5,9.3,5.5,13.5,7.7
	s16.6-6.6,24.9-13.2c8.3-6.6,46.7,20.9,72.6,32c16,6.8,63.1,23.5,98.1,35.5v83.9c-122,3.2-553,7.3-553,7.3s0-0.1,0-0.2L837,500.9
	L837,500.9z"/>
<path id="XMLID_13_" class="st0" d="M1010,486.5c-23-19.7-53.9-45.5-61-51.5c-11.4-9.7-19.7-11.9-26.9-6.5
	c-7.3,5.4-30.1,7.6-30.1,7.6s-29.6-22.2-36.3-32.5c-7.3-11.1-11.4-16.1-13.6-18.4c-1.3-1.3-3.1-1.6-4.6-0.8
	c-4.5,2.2-9.1,5.7-14.9,8.3c-5.9,2.7-33.2-43.3-40.5-45.5s-13.5,17.3-29.1,28.2c-15.6,10.8-8.3,9.7-24.9,24.9
	c-16.6,15.2-17.6,23.8-32.2,16.2c-14.5-7.6-22.8-2.2-30.1,3.2s-9.3,5.4-13.5,7.6c-4.2,2.2-16.6-6.5-24.9-13
	c-8.3-6.5-46.6,20.6-72.5,31.4c-16,6.7-63.9,23.1-97.9,34.9v82.5c121,3.2,553,7.2,553,7.2s0-0.1,0-0.2V486.5z"/>
<path id="XMLID_415_" class="st3" d="M441.1,493.3c-11.2-11.9-33.9,5.8-46.8,13.6c-20,12.2-79.8-69.3-91-76.1c0,0-3.5,4.8-8.2,9.6
	c-3-0.6-7.1-7.2-8.4-6c-3.9,4-15.1,19.6-24.1,33.9c-8.9,14.4-9.9,0-13.4-0.8c-2.1-0.5-18.2,27.7-30.4,50c-3.9,3.9-7.6,7.3-11.2,10.1
	c-2.8,2.2-5.5,3.9-8.1,5.2c-8.6-6.5-17.7-12.9-21.3-11.6c-2.7,1-6-0.3-9.1-2c-21.1-20-21-18.4-39,2.8c-0.8,0.9-1.5,1.7-2.3,2.3
	c-7.2-8.3-14.1-15.9-17.6-15.9c-5.5,0-4.5-2.3-10.4-9.8s-24-23.1-26.2-21.2C63,467.3,52.9,461.6,47.1,466
	c-8.9,6.8-11.4,20.4-29.2,17c-6.5-1.2-22,11.9-41,29.5v104.6h516.6c13.8-1,26.4-3,36.4-4.4v-55.4C507,541,450.8,503.6,441.1,493.3z"
	/>
<path id="XMLID_12_" class="st3" d="M885.9,460.3c11.2-11.9,33.9,5.8,46.8,13.6c20,12.2,79.8-69.3,91-76.1c0,0,3.5,4.8,8.2,9.6
	c3-0.6,7.1-7.2,8.4-6c3.9,4,15.1,19.6,24.1,33.9c8.9,14.4,9.9,0,13.4-0.8c2.1-0.5,18.2,27.7,30.4,50c3.9,3.9,7.6,7.3,11.2,10.1
	c2.8,2.2,5.5,3.9,8.1,5.2c8.6-6.5,17.7-12.9,21.3-11.6c2.7,1,6-0.3,9.1-2c21.1-20,21-18.4,39,2.8c0.8,0.9,1.5,1.7,2.3,2.3
	c7.2-8.3,14.1-15.9,17.6-15.9c5.5,0,4.5-2.3,10.4-9.8s24-23.1,26.2-21.2c10.6-10.1,20.7-15.8,26.5-11.4c8.9,6.8,11.4,20.4,29.2,17
	c6.5-1.2,22,11.9,41,29.5v104.6H833.4c-13.8-1-26.4-3-36.4-4.4v-55.4C820,508,876.2,470.6,885.9,460.3z"/>
<path id="XMLID_11_" class="st3" d="M508.7,477.3c8.1-10.8,24.7,5.3,34,12.4c14.5,11.1,58-63.1,66.1-69.3c0,0,2.6,4.4,5.9,8.8
	c2.2-0.5,0.9-4.7,6.1-5.4c4.6-0.6,11.8,17.4,17.5,30.9c3.2,7.6,7.2,0,9.7-0.7c1.6-0.4,13.2,25.2,22.1,45.5c2.8,3.5,5.5,6.6,8.1,9.2
	c2,2,4,3.6,5.9,4.8c6.2-5.9,12.9-11.7,15.4-10.5c2,0.9,4.3-0.3,6.6-1.8c15.3-18.2,15.3-16.7,28.3,2.5c0.6,0.8,1.1,1.5,1.7,2.1
	c5.2-7.5,10.2-14.5,12.7-14.5c4,0,3.2-2.1,7.6-9c4.3-6.8,17.4-21.1,19-19.3c7.7-9.2,15-14.4,19.3-10.4c6.5,6.2,8.5,18.6,21.5,15.5
	c4.7-1.1,16,10.8,30,26.9v95.1H470.8c-10-2-18.8-2.8-26.8-4.1v-50.4C461,520.7,501.6,486.7,508.7,477.3z"/>
<path id="XMLID_10_" class="st1" d="M1350,496.8c-6.6-8.3-53.2-53.5-59.4-44.7c-6.2,8.8-5.8,17.1-14.6,21.2
	c-8.9,4.2-12.4-3.2-20.4-5.1c-8-1.8-16.4,6.5-19.9,8.8s-13.3,7.8-15.1,9.7c-1.8,1.8,25.2,27.2,24.8,21.7c-0.4-5.5-5.3-23.5,1.3-20.3
	s6.2,6.9,15.5,11.5s15.5,0.5,25.7,6.5c10.2,6,11.1,7.8,19.5,18c8.4,10.1,20.8,23.1,20.4,17.1s-31-52.6-26.6-54.9
	c4.4-2.3,27.5,13.4,38.1,18.4S1350,496.8,1350,496.8z"/>
<path id="XMLID_9_" class="st1" d="M1205.8,521c-13.3-17.5-31.9-54.9-38.5-59s-5.3,1.4-8,4.2s-4.9,0.9-12.8,1.4
	c-8,0.5-9.3-4.6-9.3,2.3c0,6.9-0.4,3.2-0.4,11.5s1.3,9.2-1.8,6.5c-3.1-2.8-17.7-9.7-30.6-20.8c-12.8-11.1-29.7-38.3-30.6-27.2
	s12.8,30.4,20.4,43.8c7.5,13.4,40.3,47.5,40.8,45.2s-7.1-32.7-4-32.3c3.1,0.5,20.4,7.4,20.4,7.4c12.8,10.6,17.7,19.4,24.8,23.1
	c7.1,3.7-2.2-18-8.4-31.8c-6.2-13.8-13.3-26.3-7.5-17.5s30.1,38.7,38.5,48C1207.1,534.9,1205.8,521,1205.8,521z"/>
<path id="XMLID_8_" class="st1" d="M1111,534.9c-11.1-14.3-62.9-107.9-64.2-101.5c-1.3,6.5,5.8,23.1-1.8,20.3
	c-7.5-2.8-12.4-12.5-15.9-7.4s-8.4,8.3-10.2,13.4c-1.8,5.1-3.5,16.6-8.4,12.9c-4.9-3.7-18.2-10.1-19-5.1c-0.9,5.1,0.9,4.2,4.9,15.7
	s16.4,29.5,22.6,40.1s15.1,27.7,15.9,24.4c0.9-3.2-11.5-42.9-13.7-50.7s3.1-14.8,10.2-6.5s19.5,17.1,20.4,13.8
	c0.9-3.2,5.8-10.1,4-15.2c-1.8-5.1-7.1-7.8-1.8-5.1c5.3,2.8,2.7-3.2,13.7,9.2s22.1,23.1,31,35.1s12.4,15.2,13.7,12.9
	C1113.6,539,1111,534.9,1111,534.9z"/>
<path id="XMLID_7_" class="st1" d="M672.3,537.9c-6.2-10.7-32.9-78.7-34.4-74.4s1.8,16.1-3,13.6s-7.3-9.5-10.1-6.4
	c-2.9,3.1-6.4,4.9-8.1,8.1c-1.7,3.3-3.9,10.9-6.9,8s-11.4-8.5-12.4-5.1c-1.1,3.4,0.2,2.9,1.9,11c1.7,8.2,8.4,21.4,11.7,29.2
	c3.2,7.7,7.7,20.1,8.6,18c0.9-2.1-4-30.1-4.8-35.6s3.4-9.7,7.5-3.5c4.1,6.3,11.7,13.3,12.6,11.2c0.9-2.1,4.8-6.4,4.1-9.9
	c-0.7-3.6-4.1-5.9-0.7-3.6c3.3,2.3,2.1-1.9,8.5,7.5c6.4,9.4,12.9,17.6,17.8,26.5c4.9,8.9,7,11.4,8.1,10
	C673.7,541,672.3,537.9,672.3,537.9z"/>
<path id="XMLID_6_" class="st1" d="M964.8,545.8c-10.6-14.3-20.8-53.5-32.3-60.9s-18.2-6.9-27.5-10.6c-9.3-3.7-18.2-11.1-12.4,0
	s9.3,26.8,17.3,38.7c8,12,15.9,20.3,12,10.6c-4-9.7-4.9-19.4-3.1-18c1.8,1.4,6.6,1.8,10.6,6.9c4,5.1,5.3,0,10.6,10.6
	s12,18.4,20.4,26.3C968.8,557.3,964.8,545.8,964.8,545.8z"/>
<path id="XMLID_5_" class="st1" d="M749.6,525.8c9-9.8,17.7-36.8,27.5-41.8c9.8-5.1,15.5-4.8,23.4-7.3s21.8,5.3,17,12.9
	c-4.9,7.6-10.3-0.4-17,7.9c-6.8,8.2-3.4,17,0,10.3c3.4-6.7,3.5-0.7,2,0.3s-18.3,31.7-21.7,35.2s-5.5-40.3-10-33
	c-4.5,7.3-10.2,12.7-17.3,18.1C746.2,533.7,749.6,525.8,749.6,525.8z"/>
<path id="XMLID_417_" class="st1" d="M121.2,554c13.3-17.5,31.9-54.9,38.5-59c6.6-4.2,5.3,1.4,8,4.2s4.9,0.9,12.8,1.4
	c8,0.5,9.3-4.6,9.3,2.3c0,6.9,0.4,3.2,0.4,11.5c0,8.3-1.3,9.2,1.8,6.5c3.1-2.8,17.7-9.7,30.6-20.8c12.8-11.1,29.7-38.3,30.6-27.2
	c0.9,11.1-12.8,30.4-20.4,43.8c-7.5,13.4-40.3,47.5-40.8,45.2s7.1-32.7,4-32.3c-3.1,0.5-20.4,7.4-20.4,7.4
	c-12.8,10.6-17.7,19.4-24.8,23.1c-7.1,3.7,2.2-18,8.4-31.8s13.3-26.3,7.5-17.5c-5.8,8.8-30.1,38.7-38.5,48
	C119.9,567.9,121.2,554,121.2,554z"/>
<path id="XMLID_418_" class="st1" d="M216,567.9c11.1-14.3,62.9-107.9,64.2-101.5c1.3,6.5-5.8,23.1,1.8,20.3
	c7.5-2.8,12.4-12.5,15.9-7.4s8.4,8.3,10.2,13.4s3.5,16.6,8.4,12.9c4.9-3.7,18.2-10.1,19-5.1c0.9,5.1-0.9,4.2-4.9,15.7
	c-4,11.5-16.4,29.5-22.6,40.1s-15.1,27.7-15.9,24.4c-0.9-3.2,11.5-42.9,13.7-50.7s-3.1-14.8-10.2-6.5s-19.5,17.1-20.4,13.8
	c-0.9-3.2-5.8-10.1-4-15.2c1.8-5.1,7.1-7.8,1.8-5.1c-5.3,2.8-2.7-3.2-13.7,9.2s-22.1,23.1-31,35.1s-12.4,15.2-13.7,12.9
	C213.4,572,216,567.9,216,567.9z"/>
<path id="XMLID_419_" class="st1" d="M362.2,574.8c10.6-14.3,20.8-53.5,32.3-60.9c11.5-7.4,18.2-6.9,27.5-10.6
	c9.3-3.7,18.2-11.1,12.4,0c-5.8,11.1-9.3,26.8-17.3,38.7c-8,12-15.9,20.3-12,10.6c4-9.7,4.9-19.4,3.1-18s-6.6,1.8-10.6,6.9
	c-4,5.1-5.3,0-10.6,10.6c-5.3,10.6-12,18.4-20.4,26.3C358.2,586.3,362.2,574.8,362.2,574.8z"/>
</svg>
