<?xml version="1.0" encoding="utf-8"?>
<!-- Generator: Adobe Illustrator 19.0.0, SVG Export Plug-In . SVG Version: 6.00 Build 0)  -->
<svg version="1.1" id="Layer_1" xmlns="http://www.w3.org/2000/svg" xmlns:xlink="http://www.w3.org/1999/xlink" x="0px" y="0px"
	 viewBox="0 105.1 1280 591.9" style="enable-background:new 0 105.1 1280 591.9;" xml:space="preserve">
<style type="text/css">
	.st0{fill-rule:evenodd;clip-rule:evenodd;fill:url(#XMLID_14_);}
	.st1{fill-rule:evenodd;clip-rule:evenodd;fill:#F2F2F2;}
	.st2{fill-rule:evenodd;clip-rule:evenodd;fill:#FDCF9D;}
	.st3{fill-rule:evenodd;clip-rule:evenodd;fill:#F6C99B;}
	.st4{fill-rule:evenodd;clip-rule:evenodd;fill:#E6E7E8;}
	.st5{fill-rule:evenodd;clip-rule:evenodd;fill:#806A50;}
	.st6{fill-rule:evenodd;clip-rule:evenodd;fill:#CBD2D9;}
	.st7{fill-rule:evenodd;clip-rule:evenodd;fill:#EB928C;}
	.st8{fill-rule:evenodd;clip-rule:evenodd;fill:#404041;}
	.st9{fill-rule:evenodd;clip-rule:evenodd;fill:#FFFFFF;}
	.st10{fill-rule:evenodd;clip-rule:evenodd;fill:#080204;}
	.st11{fill-rule:evenodd;clip-rule:evenodd;fill:#231F20;}
	.st12{fill-rule:evenodd;clip-rule:evenodd;fill:#A6A8AB;}
	.st13{fill-rule:evenodd;clip-rule:evenodd;fill:#6F5A43;}
	.st14{fill-rule:evenodd;clip-rule:evenodd;fill:#927C61;}
	.st15{fill-rule:evenodd;clip-rule:evenodd;fill:#58595B;}
	.st16{fill-rule:evenodd;clip-rule:evenodd;fill:#E2E3E4;}
	.st17{fill-rule:evenodd;clip-rule:evenodd;fill:#4F5050;}
	.st18{fill-rule:evenodd;clip-rule:evenodd;fill:#FCC487;}
	.st19{fill-rule:evenodd;clip-rule:evenodd;fill:#C7A17B;}
	.st20{fill-rule:evenodd;clip-rule:evenodd;fill:url(#XMLID_15_);}
	.st21{fill-rule:evenodd;clip-rule:evenodd;fill:url(#XMLID_16_);}
	.st22{fill-rule:evenodd;clip-rule:evenodd;fill:url(#XMLID_17_);}
	.st23{fill-rule:evenodd;clip-rule:evenodd;fill:url(#XMLID_18_);}
	.st24{fill-rule:evenodd;clip-rule:evenodd;fill:url(#XMLID_19_);}
	.st25{fill-rule:evenodd;clip-rule:evenodd;fill:url(#XMLID_20_);}
	.st26{fill-rule:evenodd;clip-rule:evenodd;fill:url(#XMLID_21_);}
	.st27{fill-rule:evenodd;clip-rule:evenodd;fill:url(#XMLID_22_);}
	.st28{fill-rule:evenodd;clip-rule:evenodd;fill:url(#XMLID_23_);}
	.st29{fill-rule:evenodd;clip-rule:evenodd;fill:url(#XMLID_24_);}
	.st30{fill-rule:evenodd;clip-rule:evenodd;fill:url(#XMLID_25_);}
	.st31{fill-rule:evenodd;clip-rule:evenodd;fill:url(#XMLID_26_);}
	.st32{fill-rule:evenodd;clip-rule:evenodd;fill:url(#XMLID_27_);}
	.st33{fill-rule:evenodd;clip-rule:evenodd;fill:url(#XMLID_28_);}
	.st34{fill-rule:evenodd;clip-rule:evenodd;fill:url(#XMLID_29_);}
	.st35{fill-rule:evenodd;clip-rule:evenodd;fill:url(#XMLID_30_);}
	.st36{fill-rule:evenodd;clip-rule:evenodd;fill:url(#XMLID_31_);}
	.st37{fill-rule:evenodd;clip-rule:evenodd;fill:url(#XMLID_32_);}
	.st38{fill-rule:evenodd;clip-rule:evenodd;fill:url(#XMLID_33_);}
	.st39{fill-rule:evenodd;clip-rule:evenodd;fill:url(#XMLID_34_);}
	.st40{fill-rule:evenodd;clip-rule:evenodd;fill:url(#XMLID_35_);}
	.st41{fill-rule:evenodd;clip-rule:evenodd;fill:url(#XMLID_36_);}
	.st42{fill-rule:evenodd;clip-rule:evenodd;fill:url(#XMLID_37_);}
	.st43{fill-rule:evenodd;clip-rule:evenodd;fill:url(#XMLID_38_);}
	.st44{fill-rule:evenodd;clip-rule:evenodd;fill:url(#XMLID_39_);}
	.st45{fill-rule:evenodd;clip-rule:evenodd;fill:url(#XMLID_40_);}
	.st46{fill-rule:evenodd;clip-rule:evenodd;fill:url(#XMLID_41_);}
	.st47{fill-rule:evenodd;clip-rule:evenodd;fill:url(#XMLID_42_);}
	.st48{fill-rule:evenodd;clip-rule:evenodd;fill:url(#XMLID_43_);}
	.st49{fill-rule:evenodd;clip-rule:evenodd;fill:url(#XMLID_44_);}
	.st50{fill-rule:evenodd;clip-rule:evenodd;fill:url(#XMLID_45_);}
	.st51{fill-rule:evenodd;clip-rule:evenodd;fill:url(#XMLID_46_);}
	.st52{fill-rule:evenodd;clip-rule:evenodd;fill:url(#XMLID_47_);}
	.st53{fill-rule:evenodd;clip-rule:evenodd;fill:url(#XMLID_48_);}
	.st54{fill-rule:evenodd;clip-rule:evenodd;fill:url(#XMLID_49_);}
</style>
<linearGradient id="XMLID_14_" gradientUnits="userSpaceOnUse" x1="642.1683" y1="306.2284" x2="642.1683" y2="1008.9525">
	<stop  offset="0" style="stop-color:#BFD74D"/>
	<stop  offset="0.1293" style="stop-color:#BFD74D"/>
	<stop  offset="0.4206" style="stop-color:#93C84C"/>
	<stop  offset="0.5104" style="stop-color:#85C049"/>
	<stop  offset="0.6236" style="stop-color:#6DB244"/>
	<stop  offset="0.7623" style="stop-color:#61A442"/>
	<stop  offset="1" style="stop-color:#46833D"/>
</linearGradient>
<path id="XMLID_459_" class="st0" d="M1284.3,697H0V457.5c154.2-15.1,390.8-46.8,629.9-65.1c92.4-7,654.4-29.9,654.4-14.5
	C1284.3,476.4,1284.3,600.1,1284.3,697z"/>
<path id="XMLID_458_" class="st1" d="M729.3,697h-13c-6-7.6-15.8-19.5-15.8-19.5s-71.9-112.8-77.2-122.3c-5.3-9.4-28.2-74-29.1-81.7
	c-0.9-7.7,12.5-60.3,15.8-69.9c2.1-0.3,4.1-0.6,6.2-0.9c-2,10.4-13.6,70.8-14.1,73.1c-0.5,2.4,27.4,78.3,27.4,78.3
	s15.3,24,31.6,49.5c17.8,27.9,36.9,57.6,38.4,59.7C702.5,667.6,719.1,685.6,729.3,697z"/>
<path id="XMLID_457_" class="st2" d="M1017,697H750c-77.7-83-177.9-230.9-116.8-306.8c10-1.4,20.1-2.7,30.1-4
	C613.3,491.1,879.9,627.1,1017,697z"/>
<path id="XMLID_456_" class="st2" d="M1017,697H750c-77.7-80.2-177.9-223.1-116.8-296.5l0,0l0.5-0.1l3.3-0.4l0.5-0.1
	c3.7-0.5,7.4-1,11.1-1.4l2.3-0.3c4.2-0.5,8.3-1,12.5-1.5l0,0C613.3,498,879.9,629.5,1017,697z"/>
<path id="XMLID_455_" class="st3" d="M939.8,697H809.5c-7.9-10.1-15.2-22.4-31.8-41.3c-25.9-29.6-55.6-31.7-80.4-52.1
	s-49.6-89.2-60.8-105.3c-11.3-16.1-15.8-31.2-11.3-52.1c3.6-16.9,12.8-37,16.1-46.6c5.4-0.7,10.9-1.4,16.4-2.1
	c-4.7,10.2-11.9,25.4-13.3,35.3c-2.3,16.1,0,29,6.8,40.8c6.8,11.8,12,34.4,27.8,54.8c15.8,20.4,29.3,7.5,43.6,21.5
	c14.3,14,66.9,53.7,104.4,78.5C851.8,644.7,902.7,674.5,939.8,697z"/>
<ellipse id="XMLID_454_" transform="matrix(0.9998 -1.951105e-002 1.951105e-002 0.9998 -8.3205 21.2318)" class="st1" cx="1083.9" cy="437" rx="46.1" ry="7.7"/>
<ellipse id="XMLID_453_" class="st1" cx="835.3" cy="415.4" rx="46.1" ry="7.7"/>
<ellipse id="XMLID_452_" class="st1" cx="873" cy="517.7" rx="31.1" ry="6.7"/>
<ellipse id="XMLID_451_" class="st1" cx="1002.2" cy="496.8" rx="31.1" ry="6.7"/>
<ellipse id="XMLID_450_" class="st1" cx="1037.6" cy="545.8" rx="31.1" ry="6.7"/>
<ellipse id="XMLID_449_" class="st1" cx="945.7" cy="549.7" rx="31.1" ry="6.7"/>
<g id="XMLID_420_">
	<path id="XMLID_448_" class="st4" d="M1053.1,376.7c-2.3-2.5-3.5-4.6-3.3-4.4c0.2,0.2-1.1,2.7,0,5.7
		C1052,383.7,1057.1,381.1,1053.1,376.7z"/>
	<path id="XMLID_447_" class="st5" d="M1049.8,379.6c0.3-0.1,1.1-0.6,1.1-1.1c-0.1-0.6-0.9,0.1-1.9-1.2c-1-1.3-0.5-2.6-0.5-2.6
		C1046.6,375.3,1047.8,379.7,1049.8,379.6z"/>
	<path id="XMLID_446_" class="st6" d="M1068.1,420.5c-0.9,0.9-1.7,5-0.4,7c0.2,1-0.1,2.2-1,3.5c-0.6,0.6-1.1,2.5-1,5.6
		c-1.1,0.4-2.2,0.6-3.9,0.3c0,0,0-0.5,0.3-0.8c0,0-0.5,0.5-0.9,0.1c-0.1-0.2,0.5-1.6,1.1-2.7c0,0,1.6-2.2,1.6-4.8
		c0-1.5-0.5-3.9-0.8-5.7c-0.1-0.7-0.2-1.3-0.4-2l0-0.1c1.1-0.4,1.9-0.6,2.3-0.2C1065.3,421.1,1067.1,419.4,1068.1,420.5z"/>
	<path id="XMLID_445_" class="st6" d="M1102.9,421.3c-0.9,0.8-1.7,4.6-0.4,6.4c0.2,0.9-0.1,2-1,3.2c-0.6,0.5-1.1,2.3-1,5.1
		c-1.1,0.4-2.2,0.6-3.9,0.3c0,0,0-0.5,0.3-0.8c0,0-0.5,0.4-0.9,0.1c-0.1-0.2,0.5-1.4,1.1-2.5c0,0,1.6-2,1.6-4.4
		c0-1.4-0.5-3.6-0.8-5.2c-0.1-0.6-0.2-1.2-0.4-1.8l0-0.1c1.1-0.4,1.9-0.5,2.3-0.2C1100.1,421.9,1102,420.3,1102.9,421.3z"/>
	<path id="XMLID_444_" class="st7" d="M1104.2,417.1c0.4,3.8-1.2,7.5-4,9.9c0,0.2,0.1,0.3,0.2,0.5c0.4,0.8,0.5,1.3,0,1.5
		c-0.2,0.1-0.6-0.1-0.8-0.6c-0.1-0.2-0.2-0.4-0.3-0.6c-0.9,0.7-2,1.2-3.1,1.5c0,0,0,0.1,0.1,0.1c0.4,0.8,0.5,1.3,0,1.5
		c-0.2,0.1-0.6-0.1-0.8-0.6c-0.1-0.3-0.2-0.5-0.4-0.7c-1.1,0.2-2.2,0.2-3.3,0c0,0,0,0.1,0,0.1c0.1,0.9-0.1,1.4-0.6,1.3
		c-0.2,0-0.5-0.4-0.5-0.9c0-0.3,0-0.6-0.1-0.8c-0.1,0-0.2,0-0.2-0.1c-4.4-1.5-8.1-6.2-3.9-9.4
		C1090.5,416.5,1104.2,417.1,1104.2,417.1z"/>
	<path id="XMLID_443_" class="st4" d="M1062.4,383.8L1062.4,383.8L1062.4,383.8c0.2,0.6,0.5,1.2,0.7,1.9
		c2.6,12.1,22.2,11.2,29.2,8.4c6.9-2.8,16.8-5.8,20.6-0.1c-0.6,1.1,0.3,3,0.5,4.2l0,0c0,0,0,0.1,0,0.1l0,0l0,0c0,0.1,0,0.1,0,0.2
		l0,0c1.3,17.2-6.3,23.6-17.6,26.7c-18,5-41.6-2.2-39.6-17.8c1.7-15.1-6.1-6.9-15.9-6.7c-4.6,0.1-6.2-2.1-6.8-2.2
		c-4.6-0.8-8.9-12.1,1.4-13.8c13.1-2.1,8-5.9,14.4-7.1c2.4-0.4,7.1,0.2,9.5,1.7C1061.1,380.9,1062.3,383.6,1062.4,383.8z"/>
	<path id="XMLID_440_" class="st4" d="M1110.7,392.2c1.6,0.9,3.4,2.6,5.4,6.1c3.8,6.5,0.9,23.9,8.3,24.2c1.2,0,2.6-0.3,4.3-1.3
		c1.7-0.9,0.4,0.7,0.4,0.7s-2.2,1.1-3.7,1.4c-1.5,0.3-3.1,0.2-4.4-1.1c-1.4-1.3-2.7-4.4-3.1-8.1c-0.5-3.8-1.1-9.9-2.4-13.2
		c-0.9-2.4-2.7-4.4-3.9-5.4l0,0.1C1111.3,394.6,1110.3,393.2,1110.7,392.2L1110.7,392.2z M1111.7,395.6c0,0.1,0,0.1,0.1,0.2
		C1111.7,395.7,1111.7,395.6,1111.7,395.6z"/>
	<path id="XMLID_439_" class="st8" d="M1046.6,399.7c-1.9,0.6-4,1.1-6.3,1.1c-4.6,0.1-6.2-2.1-6.8-2.2c-3.9-0.6-7.6-8.8-2.5-12.4
		c0-1.2,1-2.1,2.3-2.1c0.7,0,1.3,0.3,1.7,0.7c0.8-0.1,1.9-0.4,2.9-0.6c2.1,0.7,3.2,1.9,5.3,3.4
		C1047.5,390.7,1046.9,395.4,1046.6,399.7z"/>
	<path id="XMLID_438_" class="st4" d="M1074.6,420.8c-0.9,0.9-4.1,5.6-2.8,7.7c0.2,1-0.1,2.3-1,3.6c-0.6,0.6-1.1,2.6-1,5.8
		c-1.1,0.4-2.2,0.7-3.9,0.3c0,0,0-0.5,0.3-0.9c0,0-0.5,0.5-0.9,0.1c-0.1-0.2,0.5-1.6,1.1-2.8c0,0,1.6-2.3,1.6-5
		c0-1.6-0.5-4.1-0.8-5.9c-0.1-0.7-0.2-1.4-0.4-2.1l0-0.1c1.1-0.4,1.9-0.6,2.3-0.2C1069.5,421.9,1073.7,419.7,1074.6,420.8z"/>
	<path id="XMLID_437_" class="st8" d="M1070.1,434.8c-0.2,0.8-0.3,1.9-0.2,3.3c-1.1,0.4-2.2,0.6-3.9,0.3c0,0,0-0.5,0.3-0.8
		c0,0-0.5,0.4-0.9,0.1c-0.1-0.2,0.5-1.4,1.1-2.5c0,0,0.1-0.1,0.2-0.3C1067.9,434.7,1069.2,434.6,1070.1,434.8z"/>
	<path id="XMLID_436_" class="st9" d="M1052.6,381.6c1.5,0.2,2.6,1.5,2.4,3c-0.2,1.4-1.9,2.1-3.2,1.9c-1.5-0.2-2.4-1.1-2.2-2.6
		C1049.7,382.5,1051.1,381.4,1052.6,381.6z"/>
	<circle id="XMLID_435_" class="st10" cx="1053" cy="384.2" r="0.8"/>
	
		<ellipse id="XMLID_434_" transform="matrix(-1.545171e-002 -0.9999 0.9999 -1.545171e-002 668.5568 1432.8579)" class="st8" cx="1039.7" cy="387.3" rx="2.1" ry="2.3"/>
	
		<ellipse id="XMLID_433_" transform="matrix(-1.556203e-002 -0.9999 0.9999 -1.556203e-002 667.5248 1433.071)" class="st11" cx="1039.2" cy="387.9" rx="1.5" ry="1.6"/>
	<path id="XMLID_432_" class="st8" d="M1122.6,422c0.4-0.4,1.4-2.2,3.7-2.6c2.3-0.5,2,0.6,4.7,0.9c2.7,0.3,3.6-0.6,3.3-0.3
		c-0.3,0.2-2,3.3-5.9,4.3c-3.9,1-6,0-5.9-1.1C1122.6,422,1122.6,422,1122.6,422z"/>
	<path id="XMLID_431_" class="st4" d="M1061.9,378c4.1-0.4,6.8-1.3,6.5-1.3c-0.3,0-1.2,3.3-4.6,5.1
		C1057.3,385.2,1054.8,378.7,1061.9,378z"/>
	<path id="XMLID_430_" class="st12" d="M1062.3,379.2c2.2-1,5-1.3,4.8-1.1c-0.2,0.1-1.5,2.3-3.4,3.3c-1.9,1-3.7,1.1-4.2,0.7
		C1057.6,380.9,1061.5,379.6,1062.3,379.2z"/>
	<path id="XMLID_429_" class="st5" d="M1054.8,380.4c-0.3-0.1-1-0.5-0.9-1.1c0.1-0.6,0.9,0.1,2.1-1.3c1.2-1.4,0.8-2.6,0.8-2.6
		C1058.6,376,1056.8,380.4,1054.8,380.4z"/>
	<path id="XMLID_428_" class="st8" d="M1065.9,433.4c-0.2,0.8-0.3,1.9-0.2,3.3c-1.1,0.4-2.2,0.6-3.9,0.3c0,0,0-0.5,0.3-0.8
		c0,0-0.5,0.4-0.9,0.1c-0.1-0.2,0.5-1.4,1.1-2.5c0,0,0.1-0.1,0.2-0.3C1063.7,433.3,1065,433.2,1065.9,433.4z"/>
	<path id="XMLID_427_" class="st4" d="M1109.9,416.4c-0.9,1-4.6,8.6-3.2,10.9c0.2,1.1-0.1,2.4-1,3.9c-0.6,0.6-1.1,2.8-1,6.2
		c-1.1,0.4-2.1,0.7-3.9,0.3c0,0,0-0.6,0.2-0.9c0,0-0.5,0.5-0.9,0.1c-0.1-0.3,0.5-1.8,1.1-3c0,0,1.6-2.5,1.6-5.4
		c0-1.7-0.5-4.4-0.9-6.4c-0.1-0.8-0.2-1.5-0.4-2.2l0-0.1C1101.6,419.7,1105.2,410,1109.9,416.4z"/>
	<path id="XMLID_426_" class="st8" d="M1104.9,434.2c-0.2,0.8-0.3,1.9-0.2,3.3c-1.1,0.4-2.2,0.6-3.9,0.3c0,0,0-0.5,0.3-0.8
		c0,0-0.5,0.4-0.9,0.1c-0.1-0.2,0.5-1.4,1.1-2.5c0,0,0.1-0.1,0.2-0.3C1102.7,434.2,1104,434.1,1104.9,434.2z"/>
	<path id="XMLID_425_" class="st8" d="M1100.8,432.8c-0.2,0.8-0.3,1.9-0.2,3.3c-1.1,0.4-2.2,0.6-3.9,0.3c0,0,0-0.5,0.3-0.8
		c0,0-0.5,0.4-0.9,0.1c-0.1-0.2,0.5-1.4,1.1-2.5c0,0,0.1-0.1,0.2-0.3C1098.5,432.8,1099.9,432.7,1100.8,432.8z"/>
	<path id="XMLID_424_" class="st8" d="M1098.9,398.6c1.3,1.9,5.1,6.7,1,9.8c-4.1,3.1-5.1,4.2-9.5,7.1c-4.4,2.9-8.1-1.3-5.5-3.6
		c2.6-2.3,7.4-2.6,5.4-5.9c-2-3.2-5.6-0.8-4.7-4.4c0.9-3.6,1.3-4.5,4.4-4.5c3.1,0,3.5,1.1,6-1.1c2.5-2.2,2.8-3.3,3.6-1.8
		C1100.4,395.7,1098.9,398.6,1098.9,398.6z"/>
	<path id="XMLID_423_" class="st8" d="M1071.6,399.3c2.2,3.5,7.6,4.1,5.7,7.8c-2,3.7-5,0.3-8,0c-3-0.3-1.6-0.8-3.7,2.5
		c-2.1,3.2-6.5,5.2-5.1,0.1c1.3-5.1,4.3-6.1,3.3-8.9c-1.1-2.7-3.7-2.1-1.9-4.2c1.8-2.1,2.6-3.9,4-1.6c1.4,2.3,2,6.1,3.3,4.5
		C1070.3,398.1,1071.6,399.3,1071.6,399.3z"/>
	<path id="XMLID_422_" class="st8" d="M1081,417.9c-3.3,0.1-2.2-1.8-6.5-2.2c-4.3-0.4-6.5-0.3-4.6,2.4c2,2.7,2.5,1.4,6.7,2.2
		c4.2,0.8,3,3.5,6.1,2c3.1-1.5,6.7-1.4,3.6-2.7C1083.3,418.4,1081,417.9,1081,417.9z"/>
	<path id="XMLID_421_" class="st8" d="M1108.1,395.2c-2.1,0.8-1.3,0.9-1.3,3.8c0,3-1,2.2-1.7,4.9c-0.7,2.7-1.7,7,1.7,4.4
		c3.4-2.6,2.2-4.7,3.9-6.1c1.7-1.4,2-0.4,1.5-3.5C1111.7,395.7,1108.1,395.2,1108.1,395.2z"/>
</g>
<g id="XMLID_373_">
	<path id="XMLID_91_" class="st6" d="M849.7,396.9c1,1,2,5.7,0.5,8.1c-0.2,1.2,0.2,2.5,1.2,4c0.6,0.7,1.3,2.9,1.2,6.4
		c1.3,0.4,2.5,0.7,4.5,0.3c0,0,0-0.6-0.3-0.9c0,0,0.5,0.5,1.1,0.1c0.1-0.3-0.6-1.8-1.3-3.1c0,0-1.9-2.5-1.9-5.5
		c0-1.7,0.5-4.5,0.9-6.5c0.1-0.8,0.2-1.5,0.5-2.3l0-0.1c-1.2-0.4-2.2-0.6-2.7-0.1C852.8,397.5,850.7,395.6,849.7,396.9z"/>
	<path id="XMLID_92_" class="st6" d="M809.6,398.4c1,0.9,2,5.2,0.5,7.4c-0.2,1.1,0.2,2.3,1.2,3.7c0.7,0.6,1.3,2.6,1.2,5.9
		c1.3,0.4,2.5,0.6,4.5,0.3c0,0,0-0.5-0.3-0.9c0,0,0.5,0.5,1.1,0.1c0.1-0.2-0.5-1.7-1.3-2.8c0,0-1.9-2.3-1.9-5.1c0-1.6,0.5-4.2,0.9-6
		c0.1-0.7,0.2-1.4,0.5-2.1l0-0.1c-1.2-0.4-2.2-0.6-2.7-0.1C812.8,399,810.6,397.3,809.6,398.4z"/>
	<path id="XMLID_93_" class="st7" d="M808,393.6c-0.4,4.4,1.6,8.6,4.7,11.3c0,0.2-0.1,0.4-0.2,0.5c-0.5,0.9-0.5,1.5,0,1.7
		c0.2,0.1,0.7-0.1,0.9-0.7c0.1-0.2,0.2-0.5,0.3-0.7c1.1,0.7,2.3,1.3,3.6,1.7c0,0.1,0,0.1-0.1,0.2c-0.5,0.9-0.5,1.5,0,1.7
		c0.2,0.1,0.7-0.1,0.9-0.7c0.1-0.3,0.3-0.6,0.4-0.9c1.2,0.2,2.5,0.2,3.8-0.1c0,0,0,0.1,0,0.1c-0.1,1.1,0.2,1.6,0.7,1.5
		c0.2,0,0.6-0.4,0.6-1c0-0.3,0-0.6,0.1-0.9c0.1,0,0.2-0.1,0.3-0.1c5-1.8,9.1-7.3,4.3-10.8C823.7,392.7,808,393.6,808,393.6z"/>
	<path id="XMLID_94_" class="st4" d="M821.4,367c-8-3.1-19.4-6.4-23.7,0.3c0.8,1.3-0.3,3.4-0.5,4.8l0,0c0,0,0,0.1,0,0.1l0,0l0,0
		c0,0.1,0,0.1,0,0.2l0,0c-1.2,19.8,7.6,27,20.7,30.4c20.8,5.4,47.8-3.3,45.2-21.2c-1.7-2.2,8.3-13.7,4.1-16.6
		C852,354.7,843.9,375.7,821.4,367z"/>
	<path id="XMLID_95_" class="st4" d="M819.9,400.8c-13.1-3.4-22-10.5-20.7-30.4l0.2,0c0-0.1,0.3-0.2,0.3-0.2v0v0c0,0,0-0.1,0-0.1v0
		c0-1.4,1-3.6,0.3-4.8c0,0-0.1,0-0.1,0c-0.8,0.6-1,1.2-1.6,2.1c0.8,1.3,0,3.4,0,4.8v0c0,0,0,0.1,0,0.1v0v0c0,0.1-0.5,0.1-0.6,0.2
		l-0.3,0c-1.2,19.8,7.5,27,20.6,30.4c15.4,4,34,0.3,41.7-9.1C851.1,401.6,834,404.5,819.9,400.8z"/>
	<path id="XMLID_96_" class="st4" d="M800.2,365.1c-1.8,1-3.9,3.1-6.1,7.1c-4.2,7.5-0.6,27.5-9.1,27.9c-1.3,0.1-3-0.3-5-1.4
		c-2-1-0.4,0.8-0.4,0.8s2.6,1.2,4.3,1.5c1.7,0.3,3.5,0.1,5.1-1.3c1.6-1.5,3-5.1,3.5-9.4c0.5-4.3,1.1-11.4,2.5-15.2
		c1-2.7,3-5.1,4.4-6.3l0,0.1C799.5,367.8,800.6,366.2,800.2,365.1L800.2,365.1z M799.1,369c0,0.1,0,0.1-0.1,0.2
		C799,369.1,799.1,369.1,799.1,369z"/>
	<path id="XMLID_99_" class="st4" d="M842.1,397.4c1,1,4.8,6.3,3.3,8.8c-0.2,1.2,0.2,2.6,1.2,4.2c0.7,0.7,1.3,3,1.2,6.6
		c1.3,0.4,2.5,0.7,4.5,0.3c0,0,0-0.6-0.3-1c0,0,0.5,0.6,1.1,0.1c0.1-0.3-0.5-1.9-1.3-3.2c0,0-1.9-2.6-1.9-5.7c0-1.8,0.5-4.7,0.9-6.8
		c0.1-0.8,0.2-1.6,0.5-2.4l0-0.1c-1.2-0.5-2.2-0.7-2.7-0.2C848.1,398.5,843.1,396,842.1,397.4z"/>
	<path id="XMLID_100_" class="st8" d="M847.6,413.3c0.2,1,0.3,2.2,0.3,3.7c1.3,0.4,2.5,0.6,4.5,0.3c0,0,0-0.5-0.3-0.9
		c0,0,0.5,0.5,1.1,0.1c0.1-0.2-0.5-1.7-1.3-2.8c0,0-0.1-0.1-0.2-0.3C850.1,413.2,848.6,413.1,847.6,413.3z"/>
	<path id="XMLID_101_" class="st8" d="M786.9,399.5c-0.4-0.4-1.6-2.5-4.3-3c-2.6-0.5-2.2,0.7-5.4,1.1c-3.1,0.4-4.1-0.6-3.8-0.3
		c0.4,0.3,2.4,3.8,6.9,4.8c4.5,1,6.9-0.1,6.7-1.4C786.9,399.5,786.9,399.5,786.9,399.5z"/>
	<path id="XMLID_102_" class="st8" d="M852.3,411.6c0.2,1,0.3,2.2,0.3,3.7c1.3,0.4,2.5,0.6,4.5,0.3c0,0,0-0.5-0.3-0.9
		c0,0,0.5,0.5,1.1,0.1c0.1-0.2-0.6-1.7-1.3-2.8c0,0-0.1-0.1-0.2-0.3C854.9,411.5,853.4,411.5,852.3,411.6z"/>
	<path id="XMLID_103_" class="st4" d="M801.4,392.9c1,1.1,5.4,9.8,3.9,12.4c-0.2,1.3,0.2,2.8,1.2,4.5c0.6,0.7,1.3,3.2,1.2,7.1
		c1.3,0.5,2.5,0.8,4.5,0.3c0,0,0-0.6-0.3-1.1c0,0,0.5,0.6,1.1,0.1c0.1-0.3-0.5-2-1.3-3.4c0,0-1.9-2.8-1.9-6.2c0-2,0.5-5.1,0.9-7.3
		c0.1-0.9,0.2-1.7,0.5-2.6l0-0.1C811,396.6,806.8,385.5,801.4,392.9z"/>
	<path id="XMLID_104_" class="st8" d="M807.5,413.3c0.2,1,0.3,2.2,0.3,3.7c1.3,0.4,2.5,0.6,4.5,0.3c0,0,0-0.5-0.3-0.9
		c0,0,0.5,0.5,1.1,0.1c0.1-0.2-0.5-1.7-1.3-2.8c0,0-0.1-0.1-0.2-0.3C810.1,413.2,808.5,413.2,807.5,413.3z"/>
	<path id="XMLID_105_" class="st8" d="M812.3,411.6c0.2,1,0.3,2.2,0.3,3.7c1.3,0.4,2.5,0.6,4.5,0.3c0,0,0-0.5-0.3-0.9
		c0,0,0.5,0.5,1.1,0.1c0.1-0.2-0.5-1.7-1.3-2.8c0,0-0.1-0.1-0.2-0.3C814.8,411.6,813.3,411.5,812.3,411.6z"/>
	<path id="XMLID_106_" class="st8" d="M830.2,387.2c-0.4-1.7-1-3.4-1.1-5.2c-0.2-2,0.3-4,0-6.1c-0.2-1.5-0.5-3.3-1.6-4.4
		c-2.1-2-4.3-0.4-6.7-0.7c-1.9-0.2-2.5-1.2-3.4-2.7c-0.8-1.4-2.1-2.4-3.7-1.7c-0.1,0-0.2,0.1-0.3,0.2c-0.4,0.3-0.8,0.6-1.1,1
		c-0.9,1.3-1,3-1.3,4.4c-0.5,2.1-0.8,4.2-0.6,6.4c0.4,3.6,2.6,5.3,5.3,7.3c2.7,2,5.3,4,8.1,5.8c1.7,1.1,6,1.9,6.8-0.8
		c0.2-0.8,0.1-1.7-0.1-2.5C830.4,387.8,830.3,387.5,830.2,387.2z"/>
	<path id="XMLID_107_" class="st8" d="M858.4,384.3c0-0.8-0.3-1.6-0.6-2.4c-0.4-0.9-2.4-2.5-2.5-3.4c-0.1-0.7,1.4-1.8,1.8-2.5
		c1.1-1.9,1.2-4.4,0.1-6.3c-0.8-1.4-2.1-2.5-3.7-2.8c-2.7-0.4-3.9,1.7-5.1,3.6c-1.5,2.3-5,2.6-7.2,4.3c-2,1.5-4.3,4.4-3.1,7
		c1.1,2.3,3.8,3.8,6.3,3.7c2.6-0.1,4.4-1,6.6,0.9c1,0.9,2.1,2,3.4,2.2c1.5,0.2,3-0.8,3.6-2.2C858.3,385.7,858.4,385,858.4,384.3z"/>
	<path id="XMLID_108_" class="st8" d="M842.4,391.6c0,0-0.1,0-0.1,0c-2.5,0.1-3-3.1-5.4-3.3c-1.2-0.1-2.4,0.9-2.8,2.1
		c-0.4,1,0.1,2.9-0.6,3.6c-0.7,0.8-3,0.4-4,0.7c-0.9,0.3-1.8,1.1-1.9,2.1c-0.2,1.3,0.9,2.5,2,3.2c5.6,3.4,12.7-1.2,17.1-4.9
		c0.7-0.6,1.5-1.5,1.4-2.4c-0.2-1.1-1.5-1.6-2.5-1.5C844.5,391.1,843.5,391.5,842.4,391.6z"/>
	<path id="XMLID_109_" class="st8" d="M808.3,380.9c-0.2-2.9,0.4-7.5-3.4-8.2c0.1-1.7,0.3-3.2-1.5-4c-1.4-0.4-2.8,0.8-3.7,1.7
		c-1.1,1-1.7,2.6-1.3,4c0.5,1.7,2.3,2.7,3.2,4.2c0.7,1.1,0.8,2.5,0.9,3.8c0.1,1.3,0.2,2.7,0.9,3.8c1.6,2.8,4.7,1.7,5.2-1.1
		c0.2-1.2,0.1-2.5-0.1-3.7C808.4,381.2,808.3,381.1,808.3,380.9z"/>
	<path id="XMLID_110_" class="st4" d="M886.2,384.9c2.9,1.8,5.1,2.7,4.9,2.5c-0.2-0.2-2.4,1.5-5.6,0.9
		C879.5,387.2,881.2,381.7,886.2,384.9z"/>
	<path id="XMLID_111_" class="st5" d="M884,388.6c0.1-0.3,0.4-1.2,0.9-1.2c0.6,0,0.1,0.9,1.5,1.6c1.5,0.7,2.6,0,2.6,0
		C888.7,391.1,884.2,390.6,884,388.6z"/>
	<path id="XMLID_112_" class="st4" d="M867.2,365c-0.8,1.4-5.8,2.2-7.7,6.3c-1.9,4,0.9,15.3-0.8,17c10.1,4.6,4.5,3.7,5.9,13.3
		c0.7,4.5,3.2,5.7,3.4,6.3c1.6,4.4,13.5,6.7,13.3-3.7c-0.2-13.3,4.5-8.9,4.5-15.4c0-2.5-1.5-7-3.3-9.1
		C882.3,379.5,869.2,366,867.2,365z"/>
	<path id="XMLID_113_" class="st8" d="M864.7,395.2c-0.2,1.9-0.4,4.1,0,6.4c0.7,4.5,3.2,5.7,3.4,6.3c1.3,3.7,10,5.9,12.6,0.3
		c1.1-0.2,1.9-1.4,1.7-2.6c-0.1-0.7-0.5-1.2-1-1.6c0-0.8,0.1-1.9,0.1-2.9c-1-1.9-2.5-2.8-4.3-4.6
		C873.5,392.9,868.9,394.2,864.7,395.2z"/>
	<path id="XMLID_114_" class="st9" d="M880.9,387.4c-0.3-1-1.5-1.6-2.6-1.3c-1,0.3-1.3,1.6-1,2.4c0.3,1,1.1,1.5,2.2,1.2
		C880.6,389.4,881.2,388.4,880.9,387.4z"/>
	<circle id="XMLID_115_" class="st10" cx="879.3" cy="388.7" r="0.8"/>
	
		<ellipse id="XMLID_116_" transform="matrix(0.9876 -0.1571 0.1571 0.9876 -51.9129 142.8864)" class="st8" cx="878.1" cy="399.9" rx="2.1" ry="2.3"/>
	
		<ellipse id="XMLID_117_" transform="matrix(0.9876 -0.1571 0.1571 0.9876 -52.0289 142.863)" class="st11" cx="877.6" cy="400.5" rx="1.5" ry="1.6"/>
	<path id="XMLID_118_" class="st4" d="M883.5,376.5c-0.3-4.1,0.1-7,0.1-6.6c0,0.3-3,1.7-4.2,5.4C877.2,382.3,884,383.6,883.5,376.5z
		"/>
	<path id="XMLID_119_" class="st12" d="M882.2,376.2c0.6-2.4,0.4-5.2,0.3-4.9c-0.1,0.2-2,1.9-2.7,3.9c-0.7,2-0.4,3.8,0,4.3
		C881.3,381.2,881.9,377.2,882.2,376.2z"/>
	<path id="XMLID_120_" class="st5" d="M882.3,383.9c0.2,0.3,0.7,0.9,1.2,0.7c0.5-0.2-0.2-0.9,0.9-2.3c1.1-1.4,2.4-1.3,2.4-1.3
		C886,379.4,881.9,382,882.3,383.9z"/>
</g>
<path id="XMLID_372_" class="st13" d="M610.9,362.1h2.5c0.6,0,1,0.7,1,1.5v49c0,0.8-0.5,1.5-1,1.5h-2.5c-0.6,0-1-0.7-1-1.5v-49
	C609.9,362.7,610.3,362.1,610.9,362.1z"/>
<path id="XMLID_371_" class="st5" d="M603.2,437.4l1.1,5l22.4,69.6l33.5,54l0,0l49.3,73.2L765,697h-9.8
	c-14.1-14.8-46.3-48.8-46.3-48.8L661.2,577l-35.7-56.6c0,0-23-72.2-22.4-72.5c0.5-0.3-2.1-1.7-1.8-2.1l-0.2-5.5l0.3-9.6l9.6-58
	l0.9,0l0.6,12L603.2,437.4z"/>
<polygon id="XMLID_370_" class="st14" points="601.8,431.6 610.9,377.3 611.8,377.4 602.4,433.9 "/>
<path id="XMLID_369_" class="st14" d="M604.5,446.4l22.3,68.2l33.5,53.2l0,0l49.3,72.1l55.5,57h-2.1c-10.1-10.3-55.1-56.1-55.1-56.1
	l-49.7-73.6l-30.6-48.6l-24.3-72.5L604.5,446.4z"/>
<polygon id="XMLID_368_" class="st5" points="612.6,397 601.8,447 626.3,529.7 661.6,583.3 709.8,662.9 741.8,697 733.7,697 
	708.3,669.4 708.1,669.1 660.2,589 660.2,589 624.4,535 624.2,534.4 602.2,457.6 600.6,442.7 611.8,388.9 612.8,388.8 "/>
<path id="XMLID_367_" class="st14" d="M602.9,417.4l8.8-28.5l1.1-0.1c0,0-9.1,29.3-9.2,29.3C603.6,418.2,603.3,417.8,602.9,417.4z"
	/>
<polygon id="XMLID_366_" class="st14" points="604.1,464 626.3,536 661.6,587.5 709.8,664.2 741.8,697 739.6,697 708.9,665.4 
	658.1,584.4 626.5,539.5 602.4,462.6 "/>
<g id="XMLID_343_">
	<path id="XMLID_121_" class="st15" d="M891,482.9c0,0,2.4-0.4,5.6,3c3.2,3.4,6.9,9,3.5,9.2C896.6,495.3,891.9,486,891,482.9z"/>
	<path id="XMLID_122_" class="st15" d="M864.6,501.5c0,0.3-1.1,2.4-1.1,4.7c0,1.8,0,2.7,1.1,4.4c1.2,0.7,1.3,1.6,1.2,2.4
		c-0.1,0.8-1,0.2-1,0.2s-0.1,0.2,0.1,0.5c0.1,0.3-0.4,0.3-1.7-0.1c-1.2-0.4-1.2-0.9-1.3-1.2c0,0,0-0.1,0-0.1c-0.2-0.3-1-4.7-1-5.4
		c0-0.7-0.1-4.8,0.2-4.8C861.3,502.1,864.6,501.5,864.6,501.5z"/>
	<path id="XMLID_123_" class="st15" d="M855.5,503.8c0,0.3-1.1,2.4-1.1,4.7c0,1.8,0,2.7,1.1,4.4c1.2,0.7,1.3,1.6,1.2,2.4
		c-0.1,0.8-1,0.2-1,0.2s-0.1,0.2,0.1,0.5c0.1,0.3-0.4,0.3-1.7-0.1c-1.2-0.4-1.2-0.9-1.3-1.2c0,0,0-0.1,0-0.1c-0.2-0.3-1-4.7-1-5.4
		c0-0.7-0.1-4.8,0.2-4.8C852.1,504.3,855.5,503.8,855.5,503.8z"/>
	<path id="XMLID_124_" class="st15" d="M880.4,508.8c0,0.3-1.1,2.4-1.1,4.7c0,1.8,0,2.7,1.1,4.4c1.2,0.7,1.3,1.6,1.2,2.4
		c-0.1,0.8-1,0.2-1,0.2s-0.1,0.2,0.1,0.5c0.1,0.3-0.4,0.3-1.7-0.1c-1.2-0.4-1.2-0.9-1.3-1.2c0,0,0-0.1,0-0.1c-0.2-0.3-1-4.7-1-5.4
		c0-0.7-0.1-4.8,0.2-4.8C877,509.3,880.4,508.8,880.4,508.8z"/>
	<path id="XMLID_125_" class="st15" d="M888,503.4c0,0.3-1.1,2.4-1.1,4.7c0,1.8,0,2.7,1.1,4.4c1.2,0.7,1.3,1.6,1.2,2.4s-1,0.2-1,0.2
		s-0.1,0.2,0.1,0.5c0.1,0.3-0.4,0.3-1.7-0.1c-1.2-0.4-1.2-0.9-1.3-1.2c0,0,0-0.1,0-0.1c-0.2-0.3-1-4.7-1-5.4c0-0.7-0.1-4.8,0.2-4.8
		C884.6,504,888,503.4,888,503.4z"/>
	<path id="XMLID_126_" class="st16" d="M853.3,483.3c0.4-1.1,1.6-1.9,3-1.9c1.1,0,2.1,0.5,2.6,1.2c0.7-0.6,1.8-0.9,2.9-0.9
		c0.2,0,0.5,0,0.7,0c0.8-1.1,2.2-1.8,3.9-1.8c1.4,0,2.6,0.5,3.5,1.3c0.6-0.5,1.5-0.8,2.5-0.8c0.6,0,1.1,0.1,1.6,0.3
		c0.6-1.2,1.7-2.1,3.1-2.1c0.8,0,1.6,0.3,2.2,0.8c0.3-0.1,0.7-0.2,1.1-0.2c1.8,0,3.2,1.4,3.4,3.2c0.4-0.2,0.8-0.3,1.3-0.3
		c1.7,0,3,1.5,3,3.5c0,0.6-0.1,1.1-0.3,1.6c3.8,2.4,6.1,5.6,6.1,9.2c0,0.7-0.1,1.5-0.3,2.2c0.6,0.6,1,1.5,1,2.4c0,0.5-0.1,1-0.3,1.4
		c0.2,0.5,0.3,1,0.3,1.5c0,1.9-1.4,3.5-3,3.5c-0.5,0-1-0.1-1.4-0.4c-0.6,1-1.8,1.7-3.2,1.7c-0.7,0-1.3-0.2-1.8-0.4
		c-0.3,1.7-2.2,3-4.4,3c-1.1,0-2.1-0.3-2.9-0.9c-0.7,1.6-2.4,2.7-4.4,2.7c-1.3,0-2.5-0.5-3.3-1.2c-0.9,0.8-2.3,1.4-3.9,1.4
		c-2.7,0-4.9-1.6-5.1-3.6c-0.6,0.7-1.6,1.2-2.6,1.2c-1.6,0-3-1.1-3.3-2.5c-0.5,0.2-1.1,0.3-1.7,0.3c-1.8,0-3.4-1-3.4-2.3
		c-1.5-0.3-2.7-1.6-2.7-3.2c0-0.2,0-0.4,0.1-0.6c-1.2-0.5-2.1-1.6-2.1-3c0-0.8,0.3-1.5,0.7-2c-0.1-0.4-0.1-0.8-0.1-1.2v0
		c-0.8-0.5-1.3-1.4-1.3-2.4c0-1.3,0.8-2.3,2-2.7c-0.2-0.5-0.3-1-0.4-1.5c-0.3-0.3-0.5-0.8-0.5-1.3c0-0.9,0.6-1.6,1.3-1.8
		c0.1-0.2,0.3-0.4,0.4-0.5c-0.1-0.3-0.1-0.6-0.1-0.9c0-1.5,1.2-2.7,2.7-2.7c0.6,0,1.2,0.2,1.7,0.6c0.2-0.1,0.5-0.2,0.7-0.2
		C852.7,483,853,483.1,853.3,483.3z"/>
	<path id="XMLID_127_" class="st9" d="M853.3,483.3c0.4-1.1,1.6-1.9,3-1.9c1.1,0,2.1,0.5,2.6,1.2c0.7-0.6,1.8-0.9,2.9-0.9
		c0.2,0,0.5,0,0.7,0c0.8-1.1,2.2-1.8,3.9-1.8c1.4,0,2.6,0.5,3.5,1.3c0.6-0.5,1.5-0.8,2.5-0.8c0.6,0,1.1,0.1,1.6,0.3
		c0.6-1.2,1.7-2.1,3.1-2.1c0.8,0,1.6,0.3,2.2,0.8c0.3-0.1,0.7-0.2,1.1-0.2c1.8,0,3.2,1.4,3.4,3.2c0.4-0.2,0.8-0.3,1.3-0.3
		c1.7,0,3,1.5,3,3.5c0,0.6-0.1,1.1-0.3,1.6c3.8,2.4,6.1,5.6,6.1,9.2c0,0.7-0.1,1.5-0.3,2.2c0.6,0.6,1,1.5,1,2.4c0,0.5-0.1,1-0.3,1.4
		c0.1,0.2,0.1,0.4,0.2,0.5c-0.4,0.3-0.9,0.4-1.4,0.4c-0.5,0-1-0.1-1.4-0.4c-0.6,1-1.8,1.7-3.2,1.7c-0.7,0-1.3-0.2-1.8-0.4
		c-0.3,1.7-2.2,3-4.4,3c-1.1,0-2.1-0.3-2.9-0.9c-0.7,1.6-2.4,2.7-4.4,2.7c-1.3,0-2.5-0.5-3.3-1.2c-0.9,0.8-2.3,1.4-3.9,1.4
		c-2.7,0-4.9-1.6-5.1-3.6c-0.6,0.7-1.6,1.2-2.6,1.2c-1.6,0-3-1.1-3.3-2.5c-0.5,0.2-1.1,0.3-1.7,0.3c-1.8,0-3.4-1-3.4-2.3
		c-1.5-0.3-2.7-1.6-2.7-3.2c0-0.2,0-0.4,0.1-0.6c-1.2-0.5-2.1-1.6-2.1-3c0-0.8,0.3-1.5,0.7-2c-0.1-0.4-0.1-0.8-0.1-1.2v0
		c-0.4-0.3-0.7-0.6-0.9-1c0,0,0.1,0,0.1,0c-0.2-0.5-0.3-1-0.4-1.5c0,0,0,0-0.1-0.1c0.1-1.2,0.9-2.1,2-2.5c-0.2-0.5-0.3-1-0.4-1.5
		c-0.2-0.2-0.3-0.4-0.4-0.7c0.1-1.4,1.3-2.6,2.7-2.6c0.6,0,1.2,0.2,1.7,0.6c0.2-0.1,0.5-0.2,0.7-0.2
		C852.7,483,853,483.1,853.3,483.3z"/>
	
		<ellipse id="XMLID_128_" transform="matrix(-0.3953 -0.9185 0.9185 -0.3953 788.5658 1500.2281)" class="st17" cx="888.1" cy="490.6" rx="11.6" ry="9.6"/>
	<path id="XMLID_129_" class="st15" d="M883.5,480.9c4.9-2.1,10.9,1,13.4,6.9c2,4.6,1.7,9.6-3.4,11.8c-4.9,2.1-10.9-1-13.4-6.9
		c-1.1-2.5-1.4-5.1-0.9-7.5C880.1,483.3,881.5,481.7,883.5,480.9z"/>
	<path id="XMLID_130_" class="st15" d="M880.4,484.2c0,0-2.4,0.5-4.1,4.8c-1.7,4.3-3,11,0.2,9.9
		C879.8,497.8,880.7,487.5,880.4,484.2z"/>
	<path id="XMLID_131_" class="st4" d="M885.8,492.5c1.8,0,3.2-1.4,3.2-3.2c0-1.8-1.4-3.2-3.2-3.2c-1.8,0-3.2,1.5-3.2,3.2
		C882.5,491,884,492.5,885.8,492.5z"/>
	<path id="XMLID_132_" class="st8" d="M885.7,490.5c0.9,0,1.7-0.9,1.7-1.9c0-1-0.7-1.9-1.7-1.9c-0.9,0-1.7,0.9-1.7,1.9
		C884,489.6,884.8,490.5,885.7,490.5z"/>
	<path id="XMLID_133_" class="st4" d="M893.3,491.4c1.7,0,3.1-1.4,3.1-3.1c0-1.7-1.4-3.1-3.1-3.1c-1.7,0-3.1,1.4-3.1,3.1
		C890.3,490,891.6,491.4,893.3,491.4z"/>
	<ellipse id="XMLID_134_" class="st8" cx="893.2" cy="488" rx="1.7" ry="1.9"/>
	<path id="XMLID_135_" class="st9" d="M890.9,478.2c-0.1,0-0.2-0.1-0.3-0.1c-0.2-0.3-0.5-0.6-0.9-0.7c-0.2-0.1-0.4-0.1-0.6-0.1
		c-0.3-0.3-0.8-0.4-1.4-0.3c0,0-0.1,0-0.1,0c0-0.1,0-0.1,0-0.2c-0.1-0.4-0.6-0.6-1.1-0.5c0,0-0.1,0-0.1,0c-0.3-0.3-0.7-0.4-1.1-0.4
		c-0.6,0-1.1,0.3-1.3,0.7c-0.2-0.2-0.6-0.4-1-0.4c-0.7,0-1.3,0.5-1.3,1c0,0.1,0,0.2,0.1,0.3c0,0-0.1,0-0.1,0c-1.1,0-2,0.7-2,1.5
		c0,0.2,0.1,0.5,0.2,0.7c0,0-0.1,0-0.1,0c-0.2-0.1-0.5-0.1-0.7-0.1c-1.1,0-2,0.6-2,1.4c0,0.5,0.4,0.9,0.9,1.2
		c-0.3,0.2-0.4,0.5-0.4,0.9c0,0.8,0.8,1.4,1.9,1.4c0.8,0,1.5-0.4,1.8-1c0,0,0.1,0,0.1,0.1c0.9,0.3,1.9,0,2.2-0.7l0,0
		c0.7,0.2,1.4,0.2,2,0c0.2,0.3,0.5,0.5,0.9,0.7c0.7,0.2,1.5,0,1.9-0.6c0.2,0.3,0.5,0.5,0.9,0.6c0.8,0.3,1.6,0,2-0.6
		c0.1,0,0.2,0,0.4,0.1h0c0,0.5,0.5,1,1.2,1.1c0.7,0.1,1.4-0.3,1.4-0.8c0-0.2-0.1-0.5-0.2-0.6c0.4-0.1,0.7-0.4,0.7-0.8
		c0.1-0.5-0.5-1-1.3-1.1c-0.2,0-0.3,0-0.5,0c0,0,0,0-0.1,0c0.1-0.1,0.2-0.3,0.2-0.5c0.1-0.6-0.5-1.1-1.3-1.2c0,0-0.1,0-0.1,0
		c0-0.1,0.1-0.1,0.1-0.2C891.6,478.6,891.3,478.3,890.9,478.2z"/>
	<ellipse id="XMLID_136_" class="st4" cx="886.3" cy="488.5" rx="0.7" ry="0.7"/>
	<ellipse id="XMLID_137_" class="st4" cx="893.8" cy="487.4" rx="0.7" ry="0.7"/>
</g>
<g id="XMLID_309_">
	<path id="XMLID_138_" class="st15" d="M980.2,461.2c0,0-2.5-0.5-5.9,3.1c-3.3,3.6-7.3,9.6-3.8,9.8
		C974.3,474.3,979.2,464.6,980.2,461.2z"/>
	<path id="XMLID_139_" class="st15" d="M1008.1,481c0,0.3,1.1,2.6,1.2,5c0,1.9,0,2.9-1.1,4.7c-1.3,0.7-1.3,1.7-1.3,2.5
		c0.1,0.8,1,0.2,1,0.2s0.1,0.2-0.1,0.5c-0.1,0.3,0.4,0.3,1.8-0.1c1.2-0.4,1.3-1,1.4-1.2c0,0,0-0.1,0-0.1c0.2-0.3,1.1-5,1.1-5.7
		c0-0.7,0.1-5-0.2-5.1C1011.7,481.5,1008.1,481,1008.1,481z"/>
	<path id="XMLID_140_" class="st15" d="M1017.8,483.3c0,0.3,1.1,2.6,1.2,5c0,1.9,0,2.9-1.1,4.7c-1.3,0.7-1.3,1.7-1.3,2.5
		c0.1,0.8,1,0.2,1,0.2s0.1,0.2-0.1,0.5c-0.1,0.3,0.4,0.3,1.8-0.1c1.2-0.4,1.3-1,1.4-1.2c0,0,0-0.1,0-0.1c0.2-0.3,1.1-5,1.1-5.7
		c0-0.7,0.1-5-0.2-5.1C1021.4,483.9,1017.8,483.3,1017.8,483.3z"/>
	<path id="XMLID_141_" class="st15" d="M991.5,488.7c0,0.3,1.1,2.6,1.2,5c0,1.9,0,2.9-1.1,4.7c-1.3,0.7-1.3,1.7-1.3,2.5
		c0.1,0.8,1,0.2,1,0.2s0.1,0.2-0.1,0.5c-0.1,0.3,0.4,0.3,1.8-0.1c1.2-0.4,1.3-1,1.4-1.2c0,0,0-0.1,0-0.1c0.2-0.3,1.1-5,1.1-5.7
		c0-0.7,0.1-5-0.2-5.1C995,489.2,991.5,488.7,991.5,488.7z"/>
	<path id="XMLID_142_" class="st15" d="M983.4,483c0,0.3,1.1,2.6,1.2,5c0,1.9,0,2.9-1.1,4.7c-1.3,0.7-1.3,1.7-1.3,2.5
		c0.1,0.8,1,0.2,1,0.2s0.1,0.2-0.1,0.5c-0.1,0.3,0.4,0.3,1.8-0.1c1.2-0.4,1.3-1,1.4-1.2c0,0,0-0.1,0-0.1c0.2-0.3,1.1-5,1.1-5.7
		c0-0.7,0.1-5-0.2-5.1C987,483.5,983.4,483,983.4,483z"/>
	<path id="XMLID_143_" class="st16" d="M1020.1,461.7c-0.5-1.2-1.7-2-3.2-2c-1.2,0-2.2,0.5-2.8,1.3c-0.8-0.6-1.9-1-3-1
		c-0.3,0-0.5,0-0.7,0c-0.8-1.1-2.4-1.9-4.1-1.9c-1.5,0-2.8,0.5-3.7,1.4c-0.7-0.5-1.6-0.8-2.6-0.8c-0.6,0-1.2,0.1-1.7,0.3
		c-0.6-1.3-1.8-2.2-3.3-2.2c-0.9,0-1.7,0.3-2.3,0.9c-0.4-0.1-0.8-0.2-1.2-0.2c-1.9,0-3.4,1.5-3.6,3.4c-0.4-0.2-0.9-0.3-1.3-0.3
		c-1.8,0-3.2,1.6-3.2,3.7c0,0.6,0.1,1.2,0.4,1.7c-4,2.6-6.4,6-6.4,9.7c0,0.8,0.1,1.6,0.3,2.3c-0.7,0.7-1.1,1.6-1.1,2.6
		c0,0.5,0.1,1.1,0.3,1.5c-0.2,0.5-0.3,1-0.3,1.6c0,2,1.4,3.7,3.2,3.7c0.5,0,1.1-0.2,1.5-0.4c0.6,1,1.9,1.8,3.4,1.8
		c0.7,0,1.4-0.2,1.9-0.4c0.4,1.8,2.3,3.1,4.6,3.1c1.2,0,2.3-0.3,3.1-0.9c0.7,1.7,2.5,2.9,4.6,2.9c1.4,0,2.6-0.5,3.5-1.3
		c1,0.9,2.5,1.5,4.2,1.5c2.9,0,5.2-1.7,5.4-3.8c0.7,0.8,1.7,1.3,2.8,1.3c1.7,0,3.1-1.1,3.5-2.7c0.5,0.2,1.2,0.4,1.8,0.4
		c2,0,3.6-1.1,3.6-2.5c1.6-0.3,2.8-1.7,2.8-3.4c0-0.2,0-0.4-0.1-0.6c1.3-0.5,2.2-1.7,2.2-3.2c0-0.8-0.3-1.5-0.8-2.1
		c0.1-0.4,0.1-0.8,0.1-1.2v0c0.8-0.6,1.3-1.5,1.3-2.5c0-1.3-0.9-2.5-2.1-2.9c0.2-0.5,0.4-1,0.4-1.6c0.3-0.4,0.6-0.9,0.6-1.4
		c0-0.9-0.6-1.7-1.4-1.9c-0.1-0.2-0.3-0.4-0.4-0.6c0.1-0.3,0.2-0.6,0.2-0.9c0-1.6-1.3-2.9-2.9-2.9c-0.7,0-1.3,0.2-1.8,0.6
		c-0.2-0.1-0.5-0.2-0.8-0.2C1020.8,461.3,1020.4,461.5,1020.1,461.7z"/>
	<path id="XMLID_144_" class="st9" d="M1020.1,461.7c-0.5-1.2-1.7-2-3.2-2c-1.2,0-2.2,0.5-2.8,1.3c-0.8-0.6-1.9-1-3-1
		c-0.3,0-0.5,0-0.7,0c-0.8-1.1-2.4-1.9-4.1-1.9c-1.5,0-2.8,0.5-3.7,1.4c-0.7-0.5-1.6-0.8-2.6-0.8c-0.6,0-1.2,0.1-1.7,0.3
		c-0.6-1.3-1.8-2.2-3.3-2.2c-0.9,0-1.7,0.3-2.3,0.9c-0.4-0.1-0.8-0.2-1.2-0.2c-1.9,0-3.4,1.5-3.6,3.4c-0.4-0.2-0.9-0.3-1.3-0.3
		c-1.8,0-3.2,1.6-3.2,3.7c0,0.6,0.1,1.2,0.4,1.7c-4,2.6-6.4,6-6.4,9.7c0,0.8,0.1,1.6,0.3,2.3c-0.7,0.7-1.1,1.6-1.1,2.6
		c0,0.5,0.1,1.1,0.3,1.5c-0.1,0.2-0.1,0.4-0.2,0.6c0.4,0.3,1,0.4,1.5,0.4c0.5,0,1.1-0.2,1.5-0.4c0.6,1,1.9,1.8,3.4,1.8
		c0.7,0,1.4-0.2,1.9-0.4c0.4,1.8,2.3,3.1,4.6,3.1c1.2,0,2.3-0.3,3.1-0.9c0.7,1.7,2.5,2.9,4.6,2.9c1.4,0,2.6-0.5,3.5-1.3
		c1,0.9,2.5,1.5,4.2,1.5c2.9,0,5.2-1.7,5.4-3.8c0.7,0.8,1.7,1.3,2.8,1.3c1.7,0,3.1-1.1,3.5-2.7c0.5,0.2,1.2,0.4,1.8,0.4
		c2,0,3.6-1.1,3.6-2.5c1.6-0.3,2.8-1.7,2.8-3.4c0-0.2,0-0.4-0.1-0.6c1.3-0.5,2.2-1.7,2.2-3.2c0-0.8-0.3-1.5-0.8-2.1
		c0.1-0.4,0.1-0.8,0.1-1.2l0,0c0.4-0.3,0.7-0.6,1-1.1c0,0-0.1,0-0.1,0c0.2-0.5,0.4-1,0.4-1.6c0,0,0-0.1,0.1-0.1
		c-0.1-1.2-0.9-2.2-2.1-2.6c0.2-0.5,0.4-1,0.4-1.6c0.2-0.2,0.3-0.4,0.4-0.7c-0.1-1.5-1.3-2.7-2.9-2.7c-0.7,0-1.3,0.2-1.8,0.6
		c-0.2-0.1-0.5-0.2-0.8-0.2C1020.8,461.3,1020.4,461.5,1020.1,461.7z"/>
	
		<ellipse id="XMLID_145_" transform="matrix(0.3953 -0.9185 0.9185 0.3953 163.4573 1187.0333)" class="st17" cx="983.3" cy="469.4" rx="12.3" ry="10.2"/>
	<path id="XMLID_146_" class="st15" d="M988.2,459.1c-5.2-2.2-11.5,1-14.2,7.3c-2.1,4.9-1.8,10.1,3.6,12.5c5.2,2.2,11.5-1,14.2-7.3
		c1.1-2.7,1.4-5.4,1-7.9C991.8,461.6,990.2,460,988.2,459.1z"/>
	<path id="XMLID_147_" class="st15" d="M991.5,462.6c0,0,2.5,0.5,4.3,5.1c1.8,4.6,3.2,11.6-0.2,10.5
		C992.1,477,991.1,466.1,991.5,462.6z"/>
	<path id="XMLID_148_" class="st4" d="M985.8,471.4c1.9,0,3.4-1.5,3.4-3.4c0-1.9-1.5-3.4-3.4-3.4c-1.9,0-3.4,1.5-3.4,3.4
		C982.4,469.8,983.9,471.4,985.8,471.4z"/>
	<path id="XMLID_149_" class="st8" d="M985.8,469.3c1,0,1.8-0.9,1.8-2c0-1.1-0.8-2-1.8-2c-1,0-1.8,0.9-1.8,2
		C984.1,468.4,984.9,469.3,985.8,469.3z"/>
	<path id="XMLID_150_" class="st4" d="M977.8,470.2c1.8,0,3.3-1.5,3.3-3.3c0-1.8-1.5-3.3-3.3-3.3c-1.8,0-3.3,1.5-3.3,3.3
		C974.5,468.8,976,470.2,977.8,470.2z"/>
	<path id="XMLID_151_" class="st8" d="M977.9,468.6c1,0,1.8-0.9,1.8-2c0-1.1-0.8-2-1.8-2c-1,0-1.8,0.9-1.8,2
		C976.1,467.7,976.9,468.6,977.9,468.6z"/>
	<path id="XMLID_152_" class="st9" d="M980.3,456.3c0.1,0,0.2-0.1,0.4-0.1c0.2-0.3,0.5-0.6,0.9-0.7c0.2-0.1,0.4-0.1,0.6-0.1
		c0.3-0.3,0.9-0.4,1.4-0.3c0,0,0.1,0,0.1,0c0-0.1,0-0.2,0-0.2c0.1-0.4,0.6-0.6,1.2-0.5c0,0,0.1,0,0.1,0c0.3-0.3,0.7-0.4,1.2-0.4
		c0.6,0,1.2,0.3,1.4,0.8c0.3-0.2,0.6-0.4,1.1-0.4c0.8,0,1.4,0.5,1.4,1.1c0,0.1,0,0.2-0.1,0.3c0,0,0.1,0,0.1,0c1.2,0,2.1,0.7,2.1,1.6
		c0,0.3-0.1,0.5-0.2,0.7c0,0,0.1,0,0.1,0c0.2-0.1,0.5-0.1,0.7-0.1c1.2,0,2.1,0.7,2.1,1.5c0,0.5-0.4,1-0.9,1.2
		c0.3,0.3,0.4,0.6,0.4,0.9c0,0.8-0.9,1.5-2,1.5c-0.9,0-1.6-0.4-1.9-1c0,0-0.1,0-0.1,0.1c-1,0.3-2,0-2.3-0.7l0,0
		c-0.8,0.3-1.5,0.3-2.1,0.1c-0.2,0.3-0.5,0.6-0.9,0.7c-0.8,0.3-1.6,0-2-0.6c-0.2,0.3-0.5,0.5-0.9,0.6c-0.8,0.3-1.7,0-2.1-0.6
		c-0.1,0-0.2,0.1-0.4,0.1h0c0,0.6-0.5,1.1-1.3,1.1c-0.8,0.1-1.4-0.3-1.5-0.9c0-0.2,0.1-0.5,0.2-0.7c-0.4-0.1-0.7-0.4-0.8-0.8
		c-0.1-0.6,0.6-1.1,1.4-1.2c0.2,0,0.4,0,0.5,0c0,0,0,0,0.1,0c-0.1-0.1-0.2-0.3-0.2-0.5c-0.1-0.6,0.6-1.2,1.4-1.3c0,0,0.1,0,0.1,0
		c0-0.1-0.1-0.1-0.1-0.2C979.6,456.7,979.9,456.4,980.3,456.3z"/>
	<ellipse id="XMLID_153_" class="st4" cx="985.2" cy="467.2" rx="0.7" ry="0.8"/>
	<ellipse id="XMLID_154_" class="st4" cx="977.3" cy="466" rx="0.7" ry="0.8"/>
</g>
<g id="XMLID_275_">
	<path id="XMLID_155_" class="st15" d="M969,517.4c0,0,2.4-0.1,5.1,3.6c2.7,3.8,5.6,9.9,2.3,9.6C973,530.4,969.5,520.6,969,517.4z"
		/>
	<path id="XMLID_156_" class="st15" d="M940.4,532.4c-0.1,0.3-1.4,2.3-1.7,4.5c-0.3,1.8-0.3,2.7,0.5,4.5c1.1,0.8,1,1.8,0.9,2.5
		c-0.2,0.8-1,0.1-1,0.1s-0.1,0.2,0,0.5c0.1,0.3-0.4,0.3-1.7-0.3c-1.1-0.5-1.1-1.1-1.1-1.3c0,0,0-0.1,0-0.1c-0.2-0.3-0.4-4.8-0.3-5.5
		c0.1-0.7,0.5-4.7,0.8-4.7C937,532.5,940.4,532.4,940.4,532.4z"/>
	<path id="XMLID_157_" class="st15" d="M931.1,533.5c-0.1,0.3-1.4,2.3-1.7,4.5c-0.3,1.8-0.3,2.7,0.5,4.5c1.1,0.8,1,1.8,0.9,2.5
		c-0.2,0.8-1,0.1-1,0.1s-0.1,0.2,0,0.5c0.1,0.3-0.4,0.3-1.7-0.3c-1.1-0.5-1.1-1.1-1.1-1.3c0,0,0-0.1,0-0.1c-0.2-0.3-0.4-4.8-0.3-5.5
		c0.1-0.7,0.5-4.7,0.8-4.7C927.7,533.6,931.1,533.5,931.1,533.5z"/>
	<path id="XMLID_158_" class="st15" d="M955.1,541.7c-0.1,0.3-1.4,2.3-1.7,4.5c-0.3,1.8-0.3,2.7,0.5,4.5c1.1,0.8,1,1.8,0.9,2.5
		c-0.2,0.8-1,0.1-1,0.1s-0.1,0.2,0,0.5c0.1,0.3-0.4,0.3-1.7-0.3c-1.1-0.5-1.1-1.1-1.1-1.3c0,0,0-0.1,0-0.1c-0.2-0.3-0.4-4.8-0.3-5.5
		c0.1-0.7,0.5-4.7,0.8-4.7C951.7,541.8,955.1,541.7,955.1,541.7z"/>
	<path id="XMLID_159_" class="st15" d="M963.3,537.4c-0.1,0.3-1.4,2.3-1.7,4.5c-0.3,1.8-0.3,2.7,0.5,4.5c1.1,0.8,1,1.8,0.9,2.5
		c-0.2,0.8-1,0.1-1,0.1s-0.1,0.2,0,0.5c0.1,0.3-0.4,0.3-1.7-0.3c-1.1-0.5-1.1-1.1-1.1-1.3c0,0,0-0.1,0-0.1c-0.2-0.3-0.4-4.8-0.3-5.5
		c0.1-0.7,0.5-4.7,0.8-4.7C959.9,537.4,963.3,537.4,963.3,537.4z"/>
	<path id="XMLID_160_" class="st16" d="M931.6,512.9c0.6-1,1.8-1.6,3.2-1.5c1.1,0.1,2,0.7,2.4,1.6c0.8-0.5,1.9-0.7,3-0.5
		c0.2,0,0.5,0.1,0.7,0.1c0.9-1,2.4-1.5,4.1-1.3c1.4,0.2,2.6,0.9,3.3,1.8c0.7-0.4,1.6-0.6,2.5-0.5c0.6,0.1,1.1,0.3,1.6,0.5
		c0.7-1.2,2-1.9,3.4-1.7c0.8,0.1,1.5,0.5,2.1,1.1c0.4-0.1,0.7-0.1,1.1,0c1.8,0.2,3,1.8,2.9,3.6c0.4-0.2,0.9-0.2,1.3-0.2
		c1.7,0.2,2.8,1.9,2.6,3.8c-0.1,0.6-0.3,1.1-0.5,1.5c3.4,2.9,5.3,6.4,4.8,9.9c-0.1,0.7-0.3,1.5-0.6,2.1c0.5,0.7,0.8,1.6,0.7,2.5
		c-0.1,0.5-0.2,1-0.5,1.4c0.1,0.5,0.2,1,0.1,1.6c-0.2,1.9-1.8,3.3-3.5,3c-0.5-0.1-1-0.3-1.4-0.6c-0.7,0.9-2,1.4-3.4,1.2
		c-0.7-0.1-1.3-0.3-1.8-0.7c-0.6,1.6-2.5,2.7-4.7,2.4c-1.1-0.1-2.1-0.6-2.8-1.2c-0.9,1.5-2.7,2.4-4.7,2.1c-1.3-0.2-2.4-0.8-3.1-1.7
		c-1,0.7-2.5,1.1-4.1,0.9c-2.7-0.4-4.7-2.2-4.6-4.2c-0.7,0.6-1.7,1-2.8,0.8c-1.6-0.2-2.8-1.4-2.9-2.9c-0.5,0.1-1.1,0.2-1.8,0.1
		c-1.8-0.2-3.2-1.5-3.1-2.8c-1.5-0.5-2.5-2-2.3-3.5c0-0.2,0.1-0.4,0.1-0.6c-1.2-0.6-1.9-1.9-1.7-3.3c0.1-0.8,0.5-1.4,1-1.9
		c0-0.4,0-0.8,0.1-1.2l0,0c-0.7-0.6-1.1-1.5-1-2.5c0.2-1.2,1.1-2.2,2.3-2.4c-0.1-0.5-0.2-1-0.2-1.5c-0.3-0.4-0.4-0.9-0.3-1.4
		c0.1-0.9,0.8-1.5,1.6-1.6c0.1-0.2,0.3-0.3,0.5-0.5c-0.1-0.3-0.1-0.6,0-0.9c0.2-1.5,1.6-2.5,3.1-2.3c0.6,0.1,1.2,0.4,1.6,0.8
		c0.2-0.1,0.5-0.1,0.7-0.1C931,512.5,931.3,512.7,931.6,512.9z"/>
	<path id="XMLID_161_" class="st9" d="M931.6,512.9c0.6-1,1.8-1.6,3.2-1.5c1.1,0.1,2,0.7,2.4,1.6c0.8-0.5,1.9-0.7,3-0.5
		c0.2,0,0.5,0.1,0.7,0.1c0.9-1,2.4-1.5,4.1-1.3c1.4,0.2,2.6,0.9,3.3,1.8c0.7-0.4,1.6-0.6,2.5-0.5c0.6,0.1,1.1,0.3,1.6,0.5
		c0.7-1.2,2-1.9,3.4-1.7c0.8,0.1,1.5,0.5,2.1,1.1c0.4-0.1,0.7-0.1,1.1,0c1.8,0.2,3,1.8,2.9,3.6c0.4-0.2,0.9-0.2,1.3-0.2
		c1.7,0.2,2.8,1.9,2.6,3.8c-0.1,0.6-0.3,1.1-0.5,1.5c3.4,2.9,5.3,6.4,4.8,9.9c-0.1,0.7-0.3,1.5-0.6,2.1c0.5,0.7,0.8,1.6,0.7,2.5
		c-0.1,0.5-0.2,1-0.5,1.4c0.1,0.2,0.1,0.4,0.1,0.6c-0.5,0.2-0.9,0.3-1.5,0.2c-0.5-0.1-1-0.3-1.4-0.6c-0.7,0.9-2,1.4-3.4,1.2
		c-0.7-0.1-1.3-0.3-1.8-0.7c-0.6,1.6-2.5,2.7-4.7,2.4c-1.1-0.1-2.1-0.6-2.8-1.2c-0.9,1.5-2.7,2.4-4.7,2.1c-1.3-0.2-2.4-0.8-3.1-1.7
		c-1,0.7-2.5,1.1-4.1,0.9c-2.7-0.4-4.7-2.2-4.6-4.2c-0.7,0.6-1.7,1-2.8,0.8c-1.6-0.2-2.8-1.4-2.9-2.9c-0.5,0.1-1.1,0.2-1.8,0.1
		c-1.8-0.2-3.2-1.5-3.1-2.8c-1.5-0.5-2.5-2-2.3-3.5c0-0.2,0.1-0.4,0.1-0.6c-1.2-0.6-1.9-1.9-1.7-3.3c0.1-0.8,0.5-1.4,1-1.9
		c0-0.4,0-0.8,0.1-1.2l0,0c-0.3-0.3-0.6-0.7-0.8-1.1c0,0,0.1,0,0.1,0c-0.1-0.5-0.2-1-0.2-1.5c0,0,0-0.1-0.1-0.1
		c0.2-1.1,1.1-2,2.3-2.2c-0.1-0.5-0.2-1-0.2-1.5c-0.2-0.2-0.3-0.5-0.3-0.7c0.3-1.4,1.6-2.4,3-2.2c0.6,0.1,1.2,0.4,1.6,0.8
		c0.2-0.1,0.5-0.1,0.7-0.1C931,512.5,931.3,512.7,931.6,512.9z"/>
	
		<ellipse id="XMLID_162_" transform="matrix(-0.2726 -0.9621 0.9621 -0.2726 723.4791 1596.1732)" class="st17" cx="965.1" cy="524.6" rx="11.6" ry="9.6"/>
	<path id="XMLID_163_" class="st15" d="M961.8,514.4c5.1-1.4,10.6,2.4,12.4,8.6c1.4,4.8,0.5,9.7-4.9,11.2
		c-5.1,1.4-10.6-2.4-12.4-8.5c-0.7-2.6-0.7-5.3,0-7.5C958.1,516.3,959.8,515,961.8,514.4z"/>
	<path id="XMLID_164_" class="st15" d="M958.3,517.3c0,0-2.4,0.2-4.6,4.2c-2.2,4.1-4.4,10.5-1.1,9.8
		C955.9,530.7,958.2,520.6,958.3,517.3z"/>
	<circle id="XMLID_165_" class="st4" cx="963" cy="523" r="3.2"/>
	
		<ellipse id="XMLID_166_" transform="matrix(0.1298 -0.9915 0.9915 0.1298 320.0706 1409.3732)" class="st8" cx="963" cy="522.3" rx="1.9" ry="1.7"/>
	<circle id="XMLID_167_" class="st4" cx="970.6" cy="523" r="3.1"/>
	
		<ellipse id="XMLID_168_" transform="matrix(0.1298 -0.9915 0.9915 0.1298 326.3313 1417.2053)" class="st8" cx="970.5" cy="522.7" rx="1.9" ry="1.7"/>
	<path id="XMLID_169_" class="st9" d="M969.5,512.7c-0.1-0.1-0.2-0.1-0.3-0.1c-0.1-0.3-0.4-0.6-0.8-0.8c-0.2-0.1-0.4-0.1-0.6-0.2
		c-0.3-0.3-0.8-0.5-1.3-0.5c0,0-0.1,0-0.1,0c0-0.1,0-0.1,0-0.2c0-0.4-0.5-0.7-1-0.6c0,0-0.1,0-0.1,0c-0.2-0.3-0.6-0.5-1-0.6
		c-0.6-0.1-1.1,0.1-1.4,0.5c-0.2-0.2-0.6-0.4-1-0.5c-0.7-0.1-1.4,0.3-1.5,0.8c0,0.1,0,0.2,0,0.3c0,0-0.1,0-0.1,0
		c-1.1-0.1-2.1,0.4-2.2,1.2c0,0.2,0,0.5,0.1,0.7c0,0-0.1,0-0.1,0c-0.2-0.1-0.4-0.1-0.7-0.2c-1.1-0.1-2,0.4-2.1,1.1
		c-0.1,0.5,0.2,0.9,0.7,1.3c-0.3,0.2-0.5,0.5-0.5,0.8c-0.1,0.8,0.6,1.5,1.7,1.6c0.8,0.1,1.6-0.2,1.9-0.7c0,0,0.1,0,0.1,0.1
		c0.9,0.4,1.9,0.3,2.2-0.4l0,0c0.7,0.3,1.4,0.4,2,0.3c0.2,0.3,0.4,0.6,0.8,0.8c0.7,0.3,1.5,0.2,2-0.3c0.2,0.3,0.5,0.5,0.8,0.7
		c0.8,0.4,1.6,0.2,2.1-0.3c0.1,0,0.2,0.1,0.3,0.1l0,0c-0.1,0.5,0.4,1,1.1,1.2c0.7,0.2,1.4-0.1,1.5-0.6c0.1-0.2,0-0.5-0.1-0.7
		c0.4-0.1,0.7-0.3,0.8-0.7c0.1-0.5-0.4-1.1-1.1-1.3c-0.2,0-0.3-0.1-0.5-0.1c0,0,0,0-0.1,0c0.1-0.1,0.2-0.3,0.3-0.4
		c0.1-0.6-0.4-1.2-1.1-1.4c0,0-0.1,0-0.1,0c0-0.1,0.1-0.1,0.1-0.2C970.1,513.2,969.9,512.9,969.5,512.7z"/>
	
		<ellipse id="XMLID_170_" transform="matrix(0.1299 -0.9915 0.9915 0.1299 320.6127 1409.9819)" class="st4" cx="963.6" cy="522.3" rx="0.7" ry="0.7"/>
	
		<ellipse id="XMLID_171_" transform="matrix(0.1298 -0.9915 0.9915 0.1298 327.3211 1417.3931)" class="st4" cx="971.1" cy="522.2" rx="0.7" ry="0.7"/>
</g>
<path id="XMLID_271_" class="st18" d="M1017,697C887.3,629.6,641.5,501.9,658,397.8c-1.7,8.2-1.6,21.5-0.2,31.3
	c11,76.5,207,200.3,246.3,225.6c27.4,17.7,52.9,31.7,73.9,42.3H1017z"/>
<path id="XMLID_268_" class="st13" d="M648.2,540.6v35.5c0,1-0.8,1.8-1.8,1.8h-0.6H645c-1,0-1.8-0.8-1.8-1.8v-35.5H648.2z"/>
<path id="XMLID_267_" class="st13" d="M687,609.1v34.4c0,0.8-0.6,1.4-1.4,1.4h-1.9c-0.8,0-1.4-0.6-1.4-1.4v-34.4H687z"/>
<path id="XMLID_266_" class="st13" d="M613.5,468.3v32.8c0,0.7-0.6,1.3-1.3,1.3h-1.9c-0.7,0-1.3-0.6-1.3-1.3v-32.8H613.5z"/>
<path id="XMLID_265_" class="st13" d="M604.3,408.1V444c0,1.4-1.2,2.6-2.6,2.6l0,0c-1.4,0-2.6-1.2-2.6-2.6v-35.8H604.3z"/>
<path id="XMLID_264_" class="st5" d="M708.9,551.1c1.3,0,2.4-0.3,2.4-0.7c0-0.4-1.1-0.7-2.4-0.7c-1.3,0-2.4,0.3-2.4,0.7
	C706.6,550.8,707.6,551.1,708.9,551.1z"/>
<path id="XMLID_263_" class="st5" d="M658,495.9c1.4,0,2.5-0.3,2.5-0.7c0-0.4-1.1-0.7-2.5-0.7c-1.4,0-2.5,0.3-2.5,0.7
	C655.5,495.6,656.7,495.9,658,495.9z"/>
<path id="XMLID_262_" class="st5" d="M626.2,463.4c1.3,0,2.3-0.3,2.3-0.7c0-0.4-1-0.7-2.3-0.7c-1.3,0-2.3,0.3-2.3,0.7
	C623.9,463.1,625,463.4,626.2,463.4z"/>
<path id="XMLID_261_" class="st5" d="M601.7,408.8c1.4,0,2.6-0.3,2.6-0.7s-1.2-0.7-2.6-0.7c-1.4,0-2.6,0.3-2.6,0.7
	S600.3,408.8,601.7,408.8z"/>
<g id="XMLID_242_">
	<path id="XMLID_172_" class="st15" d="M1015.6,510.3c0,0-2.5-0.5-5.9,3.1c-3.3,3.6-7.3,9.6-3.8,9.8
		C1009.7,523.4,1014.7,513.6,1015.6,510.3z"/>
	<path id="XMLID_173_" class="st15" d="M1043.6,530c0,0.3,1.1,2.6,1.2,5c0,1.9,0,2.9-1.1,4.7c-1.3,0.7-1.3,1.7-1.3,2.5
		c0.1,0.8,1,0.2,1,0.2s0.1,0.2-0.1,0.5c-0.1,0.3,0.4,0.3,1.8-0.1c1.2-0.4,1.3-1,1.4-1.2c0,0,0-0.1,0-0.1c0.2-0.3,1.1-5,1.1-5.7
		c0-0.7,0.1-5-0.2-5.1C1047.2,530.6,1043.6,530,1043.6,530z"/>
	<path id="XMLID_174_" class="st15" d="M1053.3,532.4c0,0.3,1.1,2.6,1.2,5c0,1.9,0,2.9-1.1,4.7c-1.3,0.7-1.3,1.7-1.3,2.5
		c0.1,0.8,1,0.2,1,0.2s0.1,0.2-0.1,0.5c-0.1,0.3,0.4,0.3,1.8-0.1c1.2-0.4,1.3-1,1.4-1.2c0,0,0-0.1,0-0.1c0.2-0.3,1.1-5,1.1-5.7
		c0-0.7,0.1-5-0.2-5.1C1056.8,533,1053.3,532.4,1053.3,532.4z"/>
	<path id="XMLID_175_" class="st15" d="M1026.9,537.7c0,0.3,1.1,2.6,1.2,5c0,1.9,0,2.9-1.1,4.7c-1.3,0.7-1.3,1.7-1.3,2.5
		c0.1,0.8,1,0.2,1,0.2s0.1,0.2-0.1,0.5c-0.1,0.3,0.4,0.3,1.8-0.1c1.2-0.4,1.3-1,1.4-1.2c0,0,0-0.1,0-0.1c0.2-0.3,1.1-5,1.1-5.7
		c0-0.7,0.1-5-0.2-5.1C1030.5,538.3,1026.9,537.7,1026.9,537.7z"/>
	<path id="XMLID_176_" class="st15" d="M1018.9,532c0,0.3,1.1,2.6,1.2,5c0,1.9,0,2.9-1.1,4.7c-1.3,0.7-1.3,1.7-1.3,2.5
		c0.1,0.8,1,0.2,1,0.2s0.1,0.2-0.1,0.5c-0.1,0.3,0.4,0.3,1.8-0.1c1.2-0.4,1.3-1,1.4-1.2c0,0,0-0.1,0-0.1c0.2-0.3,1.1-5,1.1-5.7
		c0-0.7,0.1-5-0.2-5.1C1022.4,532.6,1018.9,532,1018.9,532z"/>
	<path id="XMLID_177_" class="st16" d="M1055.6,510.7c-0.5-1.2-1.7-2-3.2-2c-1.2,0-2.2,0.5-2.8,1.3c-0.8-0.6-1.9-1-3.1-1
		c-0.3,0-0.5,0-0.7,0c-0.8-1.1-2.4-1.9-4.1-1.9c-1.5,0-2.8,0.5-3.7,1.4c-0.7-0.5-1.6-0.8-2.6-0.8c-0.6,0-1.2,0.1-1.7,0.3
		c-0.6-1.3-1.8-2.2-3.3-2.2c-0.9,0-1.7,0.3-2.3,0.9c-0.4-0.1-0.8-0.2-1.2-0.2c-1.9,0-3.4,1.5-3.6,3.4c-0.4-0.2-0.9-0.3-1.3-0.3
		c-1.8,0-3.2,1.6-3.2,3.7c0,0.6,0.1,1.2,0.4,1.7c-4,2.6-6.4,6-6.4,9.7c0,0.8,0.1,1.6,0.3,2.3c-0.7,0.7-1.1,1.6-1.1,2.6
		c0,0.5,0.1,1.1,0.3,1.5c-0.2,0.5-0.3,1-0.3,1.6c0,2,1.4,3.7,3.2,3.7c0.5,0,1.1-0.2,1.5-0.4c0.6,1,1.9,1.8,3.4,1.8
		c0.7,0,1.4-0.2,1.9-0.4c0.4,1.8,2.3,3.1,4.6,3.1c1.2,0,2.3-0.3,3.1-0.9c0.7,1.7,2.5,2.9,4.6,2.9c1.4,0,2.6-0.5,3.5-1.3
		c1,0.9,2.5,1.5,4.2,1.5c2.9,0,5.2-1.7,5.4-3.8c0.7,0.8,1.7,1.3,2.8,1.3c1.7,0,3.1-1.1,3.5-2.7c0.5,0.2,1.2,0.4,1.8,0.4
		c2,0,3.6-1.1,3.6-2.5c1.6-0.3,2.8-1.7,2.8-3.4c0-0.2,0-0.4-0.1-0.6c1.3-0.5,2.2-1.7,2.2-3.2c0-0.8-0.3-1.5-0.8-2.1
		c0.1-0.4,0.1-0.8,0.1-1.2v0c0.8-0.6,1.3-1.5,1.3-2.5c0-1.3-0.9-2.5-2.1-2.9c0.2-0.5,0.4-1,0.4-1.6c0.3-0.4,0.6-0.9,0.6-1.4
		c0-0.9-0.6-1.7-1.4-1.9c-0.1-0.2-0.3-0.4-0.4-0.6c0.1-0.3,0.2-0.6,0.2-0.9c0-1.6-1.3-2.9-2.9-2.9c-0.7,0-1.3,0.2-1.8,0.6
		c-0.2-0.1-0.5-0.2-0.8-0.2C1056.2,510.4,1055.9,510.5,1055.6,510.7z"/>
	<path id="XMLID_178_" class="st9" d="M1055.6,510.7c-0.5-1.2-1.7-2-3.2-2c-1.2,0-2.2,0.5-2.8,1.3c-0.8-0.6-1.9-1-3.1-1
		c-0.3,0-0.5,0-0.7,0c-0.8-1.1-2.4-1.9-4.1-1.9c-1.5,0-2.8,0.5-3.7,1.4c-0.7-0.5-1.6-0.8-2.6-0.8c-0.6,0-1.2,0.1-1.7,0.3
		c-0.6-1.3-1.8-2.2-3.3-2.2c-0.9,0-1.7,0.3-2.3,0.9c-0.4-0.1-0.8-0.2-1.2-0.2c-1.9,0-3.4,1.5-3.6,3.4c-0.4-0.2-0.9-0.3-1.3-0.3
		c-1.8,0-3.2,1.6-3.2,3.7c0,0.6,0.1,1.2,0.4,1.7c-4,2.6-6.4,6-6.4,9.7c0,0.8,0.1,1.6,0.3,2.3c-0.7,0.7-1.1,1.6-1.1,2.6
		c0,0.5,0.1,1.1,0.3,1.5c-0.1,0.2-0.1,0.4-0.2,0.6c0.4,0.3,1,0.4,1.5,0.4c0.5,0,1.1-0.2,1.5-0.4c0.6,1,1.9,1.8,3.4,1.8
		c0.7,0,1.4-0.2,1.9-0.4c0.4,1.8,2.3,3.1,4.6,3.1c1.2,0,2.3-0.3,3.1-0.9c0.7,1.7,2.5,2.9,4.6,2.9c1.4,0,2.6-0.5,3.5-1.3
		c1,0.9,2.5,1.5,4.2,1.5c2.9,0,5.2-1.7,5.4-3.8c0.7,0.8,1.7,1.3,2.8,1.3c1.7,0,3.1-1.1,3.5-2.7c0.5,0.2,1.2,0.4,1.8,0.4
		c2,0,3.6-1.1,3.6-2.5c1.6-0.3,2.8-1.7,2.8-3.4c0-0.2,0-0.4-0.1-0.6c1.3-0.5,2.2-1.7,2.2-3.2c0-0.8-0.3-1.5-0.8-2.1
		c0.1-0.4,0.1-0.8,0.1-1.2l0,0c0.4-0.3,0.7-0.6,1-1.1c0,0-0.1,0-0.1,0c0.2-0.5,0.4-1,0.4-1.6c0,0,0-0.1,0.1-0.1
		c-0.1-1.2-0.9-2.2-2.1-2.6c0.2-0.5,0.4-1,0.4-1.6c0.2-0.2,0.3-0.4,0.4-0.7c-0.1-1.5-1.3-2.7-2.9-2.7c-0.7,0-1.3,0.2-1.8,0.6
		c-0.2-0.1-0.5-0.2-0.8-0.2C1056.2,510.4,1055.9,510.5,1055.6,510.7z"/>
	
		<ellipse id="XMLID_179_" transform="matrix(0.3953 -0.9185 0.9185 0.3953 139.8464 1249.2499)" class="st17" cx="1018.8" cy="518.4" rx="12.3" ry="10.2"/>
	<path id="XMLID_180_" class="st15" d="M1023.6,508.1c-5.2-2.2-11.5,1-14.2,7.3c-2.1,4.9-1.8,10.1,3.6,12.5c5.2,2.2,11.5-1,14.2-7.3
		c1.1-2.7,1.4-5.4,1-7.9C1027.3,510.7,1025.7,509,1023.6,508.1z"/>
	<path id="XMLID_181_" class="st15" d="M1026.9,511.7c0,0,2.5,0.5,4.3,5.1c1.8,4.6,3.2,11.6-0.2,10.5
		C1027.5,526,1026.6,515.1,1026.9,511.7z"/>
	<path id="XMLID_182_" class="st4" d="M1021.2,520.4c1.9,0,3.4-1.5,3.4-3.4c0-1.9-1.5-3.4-3.4-3.4c-1.9,0-3.4,1.5-3.4,3.4
		C1017.8,518.9,1019.3,520.4,1021.2,520.4z"/>
	<path id="XMLID_183_" class="st8" d="M1021.3,518.3c1,0,1.8-0.9,1.8-2c0-1.1-0.8-2-1.8-2c-1,0-1.8,0.9-1.8,2
		C1019.5,517.4,1020.3,518.3,1021.3,518.3z"/>
	<path id="XMLID_184_" class="st4" d="M1013.2,519.3c1.8,0,3.3-1.5,3.3-3.3c0-1.8-1.5-3.3-3.3-3.3c-1.8,0-3.3,1.5-3.3,3.3
		C1009.9,517.8,1011.4,519.3,1013.2,519.3z"/>
	<path id="XMLID_185_" class="st8" d="M1013.3,517.7c1,0,1.8-0.9,1.8-2c0-1.1-0.8-2-1.8-2c-1,0-1.8,0.9-1.8,2
		C1011.6,516.7,1012.4,517.7,1013.3,517.7z"/>
	<path id="XMLID_186_" class="st9" d="M1015.8,505.3c0.1,0,0.2-0.1,0.4-0.1c0.2-0.3,0.5-0.6,0.9-0.7c0.2-0.1,0.4-0.1,0.6-0.1
		c0.3-0.3,0.9-0.4,1.4-0.3c0,0,0.1,0,0.1,0c0-0.1,0-0.2,0-0.2c0.1-0.4,0.6-0.6,1.2-0.5c0,0,0.1,0,0.1,0c0.3-0.3,0.7-0.4,1.2-0.4
		c0.6,0,1.2,0.3,1.4,0.8c0.3-0.2,0.6-0.4,1.1-0.4c0.8,0,1.4,0.5,1.4,1.1c0,0.1,0,0.2-0.1,0.3c0,0,0.1,0,0.1,0c1.2,0,2.1,0.7,2.1,1.6
		c0,0.3-0.1,0.5-0.2,0.7c0,0,0.1,0,0.1,0c0.2-0.1,0.5-0.1,0.7-0.1c1.2,0,2.1,0.7,2.1,1.5c0,0.5-0.4,1-0.9,1.2
		c0.3,0.3,0.4,0.6,0.4,0.9c0,0.8-0.9,1.5-2,1.5c-0.9,0-1.6-0.4-1.9-1c0,0-0.1,0-0.1,0.1c-1,0.3-2,0-2.3-0.7l0,0
		c-0.8,0.3-1.5,0.3-2.1,0.1c-0.2,0.3-0.5,0.6-0.9,0.7c-0.8,0.3-1.6,0-2-0.6c-0.2,0.3-0.5,0.5-0.9,0.6c-0.8,0.3-1.7,0-2.1-0.6
		c-0.1,0-0.2,0.1-0.4,0.1h0c0,0.6-0.5,1.1-1.3,1.1c-0.8,0.1-1.4-0.3-1.5-0.9c0-0.2,0.1-0.5,0.2-0.7c-0.4-0.1-0.7-0.4-0.8-0.8
		c-0.1-0.6,0.6-1.1,1.4-1.2c0.2,0,0.4,0,0.5,0c0,0,0,0,0.1,0c-0.1-0.1-0.2-0.3-0.2-0.5c-0.1-0.6,0.6-1.2,1.4-1.3c0,0,0.1,0,0.1,0
		c0-0.1-0.1-0.1-0.1-0.2C1015.1,505.8,1015.3,505.4,1015.8,505.3z"/>
	<ellipse id="XMLID_187_" class="st4" cx="1020.6" cy="516.2" rx="0.7" ry="0.8"/>
	<ellipse id="XMLID_188_" class="st4" cx="1012.8" cy="515.1" rx="0.7" ry="0.8"/>
</g>
<path id="XMLID_241_" class="st19" d="M819.8,596.3c-1.7-2.2-4.1-4.3-5.4-3.8c-1.3,0.5-2.1,0-2.9,1.1c-0.8,1.1-2,0.8-0.9,2.1
	c1,1.3,1.2,2.7,3.7,3.1c2.4,0.4,5.9,1.9,6.9,0.5C822.1,597.8,819.8,596.3,819.8,596.3z"/>
<path id="XMLID_240_" class="st19" d="M689,490.6c-2.1-2.1-7.3-2.6-8.3-1.5c-0.9,1.1-1.1,3.2,0.4,3.8c1.5,0.6,4.7,2.4,6.8,1
	C690,492.5,689,490.6,689,490.6z"/>
<path id="XMLID_239_" class="st19" d="M636.2,406.1c-1.4-0.8-4.1-1-5.1-0.3c-0.9,0.8-2,2-1.4,2.3c0.6,0.3,2,0.9,4.7,0.5
	C637.1,408.1,636.2,406.1,636.2,406.1z"/>
<path id="XMLID_238_" class="st19" d="M674.9,453.8c-1.4-0.5-4.1,0.1-4.5,0.8c-0.4,0.8-1.8,1.4,0.4,2.5c2.2,1.1,3.8-0.5,5.3-0.1
	c1.5,0.4,2.7,1.7,2.7,0.1C678.7,455.6,674.9,453.8,674.9,453.8z"/>
<path id="XMLID_237_" class="st19" d="M645.7,474.6c-1.7-1.1-4.2-2.2-5.2-1.4c-0.9,0.8-2.2,2.3-0.7,3c1.5,0.8,1.8,2.1,3.9,1.5
	C645.8,477.1,645.7,474.6,645.7,474.6z"/>
<path id="XMLID_236_" class="st19" d="M776.1,574.6c-4.7-2.8-12.7-3.8-13.3-2c-0.7,2-0.8,3.6,1.5,5.4c2.3,1.9,1.7,7.3,6.2,5.6
	C773.5,582.6,779,576.3,776.1,574.6z"/>
<path id="XMLID_235_" class="st19" d="M654.1,396.3c-0.8,0-2.8,0.7-2.6,1.1c0.1,0.5-0.4,1.1,1,0.9c1.4-0.2,1.8,0.2,2.6-0.5
	c0.8-0.7,1.1-0.8,0.6-1.2C655.2,396.2,654.1,396.3,654.1,396.3z"/>
<linearGradient id="XMLID_15_" gradientUnits="userSpaceOnUse" x1="512.3806" y1="519.8978" x2="512.3806" y2="503.6505">
	<stop  offset="0" style="stop-color:#A3CC39"/>
	<stop  offset="1" style="stop-color:#74B248"/>
</linearGradient>
<path id="XMLID_234_" class="st20" d="M504.9,517.9c0,0,0.5-4-2-7.5c0,0,3.3,1.3,5.1,6.5c0,0,0.3-6-2.5-10.5c0,0,3.1,0.3,6.4,8
	c0,0-0.5-6.8-0.5-10.8c0,0,1.3,6.8,3.1,9.5c0,0,0.8-5.3,3.6-7c0,0-1.3,3.3-0.8,6.8c0,0,1.5-2.5,5.3-3.5c0,0-4.7,4-3.9,7
	c0,0,2.1-2.2,4.2-4c0,0-0.7,4.1-3.5,5.6c1.5-0.4,4-1,5.5-1.4l-4.7,3.2h-16.6c-0.7-1.7-2.2-5.1-3.5-6.1
	C502.2,514.5,503.6,515.4,504.9,517.9z"/>
<linearGradient id="XMLID_16_" gradientUnits="userSpaceOnUse" x1="529.2974" y1="452.6447" x2="529.2974" y2="436.3974">
	<stop  offset="0" style="stop-color:#A3CC39"/>
	<stop  offset="1" style="stop-color:#74B248"/>
</linearGradient>
<path id="XMLID_233_" class="st21" d="M521.9,450.7c0,0,0.5-4-2-7.5c0,0,3.3,1.3,5.1,6.5c0,0,0.3-6-2.5-10.5c0,0,3.1,0.3,6.4,8
	c0,0-0.5-6.8-0.5-10.8c0,0,1.3,6.8,3.1,9.5c0,0,0.8-5.3,3.6-7c0,0-1.3,3.3-0.8,6.8c0,0,1.5-2.5,5.3-3.5c0,0-4.7,4-3.9,7
	c0,0,2.1-2.2,4.2-4c0,0-0.7,4.1-3.5,5.6c1.5-0.4,4-1,5.5-1.4l-4.7,3.2h-16.6c-0.7-1.7-2.2-5.1-3.5-6.1
	C519.1,447.2,520.5,448.2,521.9,450.7z"/>
<linearGradient id="XMLID_17_" gradientUnits="userSpaceOnUse" x1="762.3924" y1="453.181" x2="762.3924" y2="438.0057">
	<stop  offset="0" style="stop-color:#A3CC39"/>
	<stop  offset="1" style="stop-color:#74B248"/>
</linearGradient>
<path id="XMLID_232_" class="st22" d="M754.9,451.3c0,0,0.5-3.7-2-7c0,0,3.3,1.2,5.1,6.1c0,0,0.3-5.6-2.5-9.8c0,0,3.1,0.2,6.4,7.5
	c0,0-0.5-6.3-0.5-10.1c0,0,1.3,6.3,3.1,8.9c0,0,0.8-4.9,3.6-6.6c0,0-1.3,3-0.8,6.3c0,0,1.5-2.3,5.3-3.3c0,0-4.7,3.7-3.9,6.5
	c0,0,2.1-2.1,4.2-3.7c0,0-0.7,3.9-3.5,5.3c1.5-0.4,4-0.9,5.5-1.3l-4.7,3h-16.6c-0.7-1.6-2.2-4.8-3.5-5.7
	C752.2,448.1,753.6,449,754.9,451.3z"/>
<linearGradient id="XMLID_18_" gradientUnits="userSpaceOnUse" x1="916.6185" y1="482.3703" x2="916.6185" y2="467.1951">
	<stop  offset="0" style="stop-color:#A3CC39"/>
	<stop  offset="1" style="stop-color:#74B248"/>
</linearGradient>
<path id="XMLID_231_" class="st23" d="M909.2,480.5c0,0,0.5-3.7-2-7c0,0,3.3,1.2,5.1,6.1c0,0,0.3-5.6-2.5-9.8c0,0,3.1,0.2,6.4,7.5
	c0,0-0.5-6.3-0.5-10.1c0,0,1.3,6.3,3.1,8.9c0,0,0.8-4.9,3.6-6.6c0,0-1.3,3-0.8,6.3c0,0,1.5-2.3,5.3-3.3c0,0-4.7,3.7-3.9,6.5
	c0,0,2.1-2.1,4.2-3.7c0,0-0.7,3.9-3.5,5.3c1.5-0.4,4-0.9,5.5-1.3l-4.7,3h-16.6c-0.7-1.6-2.2-4.8-3.5-5.7
	C906.4,477.3,907.8,478.2,909.2,480.5z"/>
<linearGradient id="XMLID_19_" gradientUnits="userSpaceOnUse" x1="976.4894" y1="453.181" x2="976.4894" y2="438.0057">
	<stop  offset="0" style="stop-color:#A3CC39"/>
	<stop  offset="1" style="stop-color:#74B248"/>
</linearGradient>
<path id="XMLID_230_" class="st24" d="M969,451.3c0,0,0.5-3.7-2-7c0,0,3.3,1.2,5.1,6.1c0,0,0.3-5.6-2.5-9.8c0,0,3.1,0.2,6.4,7.5
	c0,0-0.5-6.3-0.5-10.1c0,0,1.3,6.3,3.1,8.9c0,0,0.8-4.9,3.6-6.6c0,0-1.3,3-0.8,6.3c0,0,1.5-2.3,5.3-3.3c0,0-4.7,3.7-3.9,6.5
	c0,0,2.1-2.1,4.2-3.7c0,0-0.7,3.9-3.5,5.3c1.5-0.4,4-0.9,5.5-1.3l-4.7,3h-16.6c-0.7-1.6-2.2-4.8-3.5-5.7
	C966.3,448.1,967.7,449,969,451.3z"/>
<linearGradient id="XMLID_20_" gradientUnits="userSpaceOnUse" x1="1115.3582" y1="491.977" x2="1115.3582" y2="476.8017">
	<stop  offset="0" style="stop-color:#A3CC39"/>
	<stop  offset="1" style="stop-color:#74B248"/>
</linearGradient>
<path id="XMLID_1_" class="st25" d="M1107.9,490.1c0,0,0.5-3.7-2-7c0,0,3.3,1.2,5.1,6.1c0,0,0.3-5.6-2.5-9.8c0,0,3.1,0.2,6.4,7.5
	c0,0-0.5-6.3-0.5-10.1c0,0,1.3,6.3,3.1,8.9c0,0,0.8-4.9,3.6-6.6c0,0-1.3,3-0.8,6.3c0,0,1.5-2.3,5.3-3.3c0,0-4.7,3.7-3.9,6.5
	c0,0,2.1-2.1,4.2-3.7c0,0-0.7,3.9-3.5,5.3c1.5-0.4,4-0.9,5.5-1.3l-4.7,3h-16.6c-0.7-1.6-2.2-4.8-3.5-5.7
	C1105.2,486.9,1106.5,487.8,1107.9,490.1z"/>
<linearGradient id="XMLID_21_" gradientUnits="userSpaceOnUse" x1="1199.2246" y1="542.4539" x2="1199.2246" y2="527.2786">
	<stop  offset="0" style="stop-color:#A3CC39"/>
	<stop  offset="1" style="stop-color:#74B248"/>
</linearGradient>
<path id="XMLID_7_" class="st26" d="M1191.8,540.6c0,0,0.5-3.7-2-7c0,0,3.3,1.2,5.1,6.1c0,0,0.3-5.6-2.5-9.8c0,0,3.1,0.2,6.4,7.5
	c0,0-0.5-6.3-0.5-10.1c0,0,1.3,6.3,3.1,8.9c0,0,0.8-4.9,3.6-6.6c0,0-1.3,3-0.8,6.3c0,0,1.5-2.3,5.3-3.3c0,0-4.7,3.7-3.9,6.5
	c0,0,2.1-2.1,4.2-3.7c0,0-0.7,3.9-3.5,5.3c1.5-0.4,4-0.9,5.5-1.3l-4.7,3h-16.6c-0.7-1.6-2.2-4.8-3.5-5.7
	C1189,537.4,1190.4,538.3,1191.8,540.6z"/>
<linearGradient id="XMLID_22_" gradientUnits="userSpaceOnUse" x1="859.7811" y1="396.4099" x2="859.7811" y2="388.2059">
	<stop  offset="0" style="stop-color:#A3CC39"/>
	<stop  offset="1" style="stop-color:#74B248"/>
</linearGradient>
<path id="XMLID_229_" class="st27" d="M855.8,395.4c0,0,0.3-2-1.1-3.8c0,0,1.8,0.6,2.8,3.3c0,0,0.1-3-1.4-5.3c0,0,1.7,0.1,3.4,4
	c0,0-0.3-3.4-0.3-5.4c0,0,0.7,3.4,1.7,4.8c0,0,0.4-2.7,1.9-3.5c0,0-0.7,1.6-0.4,3.4c0,0,0.8-1.3,2.9-1.8c0,0-2.5,2-2.1,3.5
	c0,0,1.2-1.1,2.3-2c0,0-0.4,2.1-1.9,2.9c0.8-0.2,2.2-0.5,3-0.7l-2.5,1.6h-9c-0.4-0.8-1.2-2.6-1.9-3.1
	C854.3,393.7,855,394.2,855.8,395.4z"/>
<linearGradient id="XMLID_23_" gradientUnits="userSpaceOnUse" x1="984.1786" y1="400.5119" x2="984.1786" y2="392.3079">
	<stop  offset="0" style="stop-color:#A3CC39"/>
	<stop  offset="1" style="stop-color:#74B248"/>
</linearGradient>
<path id="XMLID_228_" class="st28" d="M980.2,399.5c0,0,0.3-2-1.1-3.8c0,0,1.8,0.6,2.8,3.3c0,0,0.1-3-1.4-5.3c0,0,1.7,0.1,3.4,4
	c0,0-0.3-3.4-0.3-5.4c0,0,0.7,3.4,1.7,4.8c0,0,0.4-2.7,1.9-3.5c0,0-0.7,1.6-0.4,3.4c0,0,0.8-1.3,2.9-1.8c0,0-2.5,2-2.1,3.5
	c0,0,1.2-1.1,2.3-2c0,0-0.4,2.1-1.9,2.9c0.8-0.2,2.2-0.5,3-0.7l-2.5,1.6h-9c-0.4-0.8-1.2-2.6-1.9-3.1
	C978.7,397.8,979.4,398.3,980.2,399.5z"/>
<linearGradient id="XMLID_24_" gradientUnits="userSpaceOnUse" x1="1161.6206" y1="412.8883" x2="1161.6206" y2="404.6843">
	<stop  offset="0" style="stop-color:#A3CC39"/>
	<stop  offset="1" style="stop-color:#74B248"/>
</linearGradient>
<path id="XMLID_2_" class="st29" d="M1157.6,411.9c0,0,0.3-2-1.1-3.8c0,0,1.8,0.6,2.8,3.3c0,0,0.1-3-1.4-5.3c0,0,1.7,0.1,3.4,4
	c0,0-0.3-3.4-0.3-5.4c0,0,0.7,3.4,1.7,4.8c0,0,0.4-2.7,1.9-3.5c0,0-0.7,1.6-0.4,3.4c0,0,0.8-1.3,2.9-1.8c0,0-2.5,2-2.1,3.5
	c0,0,1.2-1.1,2.3-2c0,0-0.4,2.1-1.9,2.9c0.8-0.2,2.2-0.5,3-0.7l-2.5,1.6h-9c-0.4-0.8-1.2-2.6-1.9-3.1
	C1156.1,410.2,1156.8,410.6,1157.6,411.9z"/>
<linearGradient id="XMLID_25_" gradientUnits="userSpaceOnUse" x1="889.9955" y1="408.7158" x2="889.9955" y2="400.5119">
	<stop  offset="0" style="stop-color:#A3CC39"/>
	<stop  offset="1" style="stop-color:#74B248"/>
</linearGradient>
<path id="XMLID_227_" class="st30" d="M886,407.7c0,0,0.3-2-1.1-3.8c0,0,1.8,0.6,2.8,3.3c0,0,0.1-3-1.4-5.3c0,0,1.7,0.1,3.4,4
	c0,0-0.3-3.4-0.3-5.4c0,0,0.7,3.4,1.7,4.8c0,0,0.4-2.7,1.9-3.5c0,0-0.7,1.6-0.4,3.4c0,0,0.8-1.3,2.9-1.8c0,0-2.5,2-2.1,3.5
	c0,0,1.2-1.1,2.3-2c0,0-0.4,2.1-1.9,2.9c0.8-0.2,2.2-0.5,3-0.7l-2.5,1.6h-9c-0.4-0.8-1.2-2.6-1.9-3.1
	C884.5,406,885.2,406.5,886,407.7z"/>
<linearGradient id="XMLID_26_" gradientUnits="userSpaceOnUse" x1="815.686" y1="538.9441" x2="815.686" y2="530.7402">
	<stop  offset="0" style="stop-color:#A3CC39"/>
	<stop  offset="1" style="stop-color:#74B248"/>
</linearGradient>
<path id="XMLID_6_" class="st31" d="M811.7,538c0,0,0.3-2-1.1-3.8c0,0,1.8,0.6,2.8,3.3c0,0,0.1-3-1.4-5.3c0,0,1.7,0.1,3.4,4
	c0,0-0.3-3.4-0.3-5.4c0,0,0.7,3.4,1.7,4.8c0,0,0.4-2.7,1.9-3.5c0,0-0.7,1.6-0.4,3.4c0,0,0.8-1.3,2.9-1.8c0,0-2.5,2-2.1,3.5
	c0,0,1.2-1.1,2.3-2c0,0-0.4,2.1-1.9,2.9c0.8-0.2,2.2-0.5,3-0.7l-2.5,1.6h-9c-0.4-0.8-1.2-2.6-1.9-3.1
	C810.2,536.2,810.9,536.7,811.7,538z"/>
<linearGradient id="XMLID_27_" gradientUnits="userSpaceOnUse" x1="849.2579" y1="458.8586" x2="849.2579" y2="443.6833">
	<stop  offset="0" style="stop-color:#A3CC39"/>
	<stop  offset="1" style="stop-color:#74B248"/>
</linearGradient>
<path id="XMLID_226_" class="st32" d="M841.8,457c0,0,0.5-3.7-2-7c0,0,3.3,1.2,5.1,6.1c0,0,0.3-5.6-2.5-9.8c0,0,3.1,0.2,6.4,7.5
	c0,0-0.5-6.3-0.5-10.1c0,0,1.3,6.3,3.1,8.9c0,0,0.8-4.9,3.6-6.6c0,0-1.3,3-0.8,6.3c0,0,1.5-2.3,5.3-3.3c0,0-4.7,3.7-3.9,6.5
	c0,0,2.1-2.1,4.2-3.7c0,0-0.7,3.9-3.5,5.3c1.5-0.4,4-0.9,5.5-1.3l-4.7,3h-16.6c-0.7-1.6-2.2-4.8-3.5-5.7
	C839.1,453.8,840.4,454.7,841.8,457z"/>
<linearGradient id="XMLID_28_" gradientUnits="userSpaceOnUse" x1="976.4894" y1="504.5573" x2="976.4894" y2="489.3821">
	<stop  offset="0" style="stop-color:#A3CC39"/>
	<stop  offset="1" style="stop-color:#74B248"/>
</linearGradient>
<path id="XMLID_225_" class="st33" d="M969,502.7c0,0,0.5-3.7-2-7c0,0,3.3,1.2,5.1,6.1c0,0,0.3-5.6-2.5-9.8c0,0,3.1,0.2,6.4,7.5
	c0,0-0.5-6.3-0.5-10.1c0,0,1.3,6.3,3.1,8.9c0,0,0.8-4.9,3.6-6.6c0,0-1.3,3-0.8,6.3c0,0,1.5-2.3,5.3-3.3c0,0-4.7,3.7-3.9,6.5
	c0,0,2.1-2.1,4.2-3.7c0,0-0.7,3.9-3.5,5.3c1.5-0.4,4-0.9,5.5-1.3l-4.7,3h-16.6c-0.7-1.6-2.2-4.8-3.5-5.7
	C966.3,499.5,967.7,500.4,969,502.7z"/>
<linearGradient id="XMLID_29_" gradientUnits="userSpaceOnUse" x1="1079.0758" y1="579.2709" x2="1079.0758" y2="564.0957">
	<stop  offset="0" style="stop-color:#A3CC39"/>
	<stop  offset="1" style="stop-color:#74B248"/>
</linearGradient>
<path id="XMLID_3_" class="st34" d="M1071.6,577.4c0,0,0.5-3.7-2-7c0,0,3.3,1.2,5.1,6.1c0,0,0.3-5.6-2.5-9.8c0,0,3.1,0.2,6.4,7.5
	c0,0-0.5-6.3-0.5-10.1c0,0,1.3,6.3,3.1,8.9c0,0,0.8-4.9,3.6-6.6c0,0-1.3,3-0.8,6.3c0,0,1.5-2.3,5.3-3.3c0,0-4.7,3.7-3.9,6.5
	c0,0,2.1-2.1,4.2-3.7c0,0-0.7,3.9-3.5,5.3c1.5-0.4,4-0.9,5.5-1.3l-4.7,3h-16.6c-0.7-1.6-2.2-4.8-3.5-5.7
	C1068.9,574.2,1070.3,575.1,1071.6,577.4z"/>
<linearGradient id="XMLID_30_" gradientUnits="userSpaceOnUse" x1="996.9368" y1="516.0504" x2="996.9368" y2="500.8752">
	<stop  offset="0" style="stop-color:#A3CC39"/>
	<stop  offset="1" style="stop-color:#74B248"/>
</linearGradient>
<path id="XMLID_224_" class="st35" d="M989.5,514.2c0,0,0.5-3.7-2-7c0,0,3.3,1.2,5.1,6.1c0,0,0.3-5.6-2.5-9.8c0,0,3.1,0.2,6.4,7.5
	c0,0-0.5-6.3-0.5-10.1c0,0,1.3,6.3,3.1,8.9c0,0,0.8-4.9,3.6-6.6c0,0-1.3,3-0.8,6.3c0,0,1.5-2.3,5.3-3.3c0,0-4.7,3.7-3.9,6.5
	c0,0,2.1-2.1,4.2-3.7c0,0-0.7,3.9-3.5,5.3c1.5-0.4,4-0.9,5.5-1.3l-4.7,3h-16.6c-0.7-1.6-2.2-4.8-3.5-5.7
	C986.7,511,988.1,511.9,989.5,514.2z"/>
<linearGradient id="XMLID_31_" gradientUnits="userSpaceOnUse" x1="1029.4261" y1="504.5573" x2="1029.4261" y2="489.3821">
	<stop  offset="0" style="stop-color:#A3CC39"/>
	<stop  offset="1" style="stop-color:#74B248"/>
</linearGradient>
<path id="XMLID_220_" class="st36" d="M1022,502.7c0,0,0.5-3.7-2-7c0,0,3.3,1.2,5.1,6.1c0,0,0.3-5.6-2.5-9.8c0,0,3.1,0.2,6.4,7.5
	c0,0-0.5-6.3-0.5-10.1c0,0,1.3,6.3,3.1,8.9c0,0,0.8-4.9,3.6-6.6c0,0-1.3,3-0.8,6.3c0,0,1.5-2.3,5.3-3.3c0,0-4.7,3.7-3.9,6.5
	c0,0,2.1-2.1,4.2-3.7c0,0-0.7,3.9-3.5,5.3c1.5-0.4,4-0.9,5.5-1.3l-4.7,3h-16.6c-0.7-1.6-2.2-4.8-3.5-5.7
	C1019.2,499.5,1020.6,500.4,1022,502.7z"/>
<linearGradient id="XMLID_32_" gradientUnits="userSpaceOnUse" x1="1190.5704" y1="474.7827" x2="1190.5704" y2="459.6075">
	<stop  offset="0" style="stop-color:#A3CC39"/>
	<stop  offset="1" style="stop-color:#74B248"/>
</linearGradient>
<path id="XMLID_4_" class="st37" d="M1183.1,472.9c0,0,0.5-3.7-2-7c0,0,3.3,1.2,5.1,6.1c0,0,0.3-5.6-2.5-9.8c0,0,3.1,0.2,6.4,7.5
	c0,0-0.5-6.3-0.5-10.1c0,0,1.3,6.3,3.1,8.9c0,0,0.8-4.9,3.6-6.6c0,0-1.3,3-0.8,6.3c0,0,1.5-2.3,5.3-3.3c0,0-4.7,3.7-3.9,6.5
	c0,0,2.1-2.1,4.2-3.7c0,0-0.7,3.9-3.5,5.3c1.5-0.4,4-0.9,5.5-1.3l-4.7,3h-16.6c-0.7-1.6-2.2-4.8-3.5-5.7
	C1180.4,469.7,1181.7,470.6,1183.1,472.9z"/>
<linearGradient id="XMLID_33_" gradientUnits="userSpaceOnUse" x1="1054.251" y1="453.181" x2="1054.251" y2="438.0057">
	<stop  offset="0" style="stop-color:#A3CC39"/>
	<stop  offset="1" style="stop-color:#74B248"/>
</linearGradient>
<path id="XMLID_219_" class="st38" d="M1046.8,451.3c0,0,0.5-3.7-2-7c0,0,3.3,1.2,5.1,6.1c0,0,0.3-5.6-2.5-9.8c0,0,3.1,0.2,6.4,7.5
	c0,0-0.5-6.3-0.5-10.1c0,0,1.3,6.3,3.1,8.9c0,0,0.8-4.9,3.6-6.6c0,0-1.3,3-0.8,6.3c0,0,1.5-2.3,5.3-3.3c0,0-4.7,3.7-3.9,6.5
	c0,0,2.1-2.1,4.2-3.7c0,0-0.7,3.9-3.5,5.3c1.5-0.4,4-0.9,5.5-1.3l-4.7,3h-16.6c-0.7-1.6-2.2-4.8-3.5-5.7
	C1044,448.1,1045.4,449,1046.8,451.3z"/>
<linearGradient id="XMLID_34_" gradientUnits="userSpaceOnUse" x1="1053.2578" y1="411.5851" x2="1053.2578" y2="402.8748">
	<stop  offset="0" style="stop-color:#A3CC39"/>
	<stop  offset="1" style="stop-color:#74B248"/>
</linearGradient>
<path id="XMLID_218_" class="st39" d="M1049,410.5c0,0,0.3-2.1-1.2-4c0,0,1.9,0.7,2.9,3.5c0,0,0.1-3.2-1.5-5.6c0,0,1.8,0.1,3.7,4.3
	c0,0-0.3-3.6-0.3-5.8c0,0,0.7,3.6,1.8,5.1c0,0,0.4-2.8,2-3.8c0,0-0.7,1.7-0.4,3.6c0,0,0.9-1.3,3.1-1.9c0,0-2.7,2.1-2.3,3.7
	c0,0,1.2-1.2,2.4-2.1c0,0-0.4,2.2-2,3c0.9-0.2,2.3-0.5,3.2-0.7l-2.7,1.7h-9.5c-0.4-0.9-1.3-2.7-2-3.3
	C1047.4,408.7,1048.2,409.2,1049,410.5z"/>
<linearGradient id="XMLID_35_" gradientUnits="userSpaceOnUse" x1="815.0588" y1="506.6004" x2="815.0588" y2="491.4251">
	<stop  offset="0" style="stop-color:#A3CC39"/>
	<stop  offset="1" style="stop-color:#74B248"/>
</linearGradient>
<path id="XMLID_215_" class="st40" d="M807.6,504.8c0,0,0.5-3.7-2-7c0,0,3.3,1.2,5.1,6.1c0,0,0.3-5.6-2.5-9.8c0,0,3.1,0.2,6.4,7.5
	c0,0-0.5-6.3-0.5-10.1c0,0,1.3,6.3,3.1,8.9c0,0,0.8-4.9,3.6-6.6c0,0-1.3,3-0.8,6.3c0,0,1.5-2.3,5.3-3.3c0,0-4.7,3.7-3.9,6.5
	c0,0,2.1-2.1,4.2-3.7c0,0-0.7,3.9-3.5,5.3c1.5-0.4,4-0.9,5.5-1.3l-4.7,3h-16.6c-0.7-1.6-2.2-4.8-3.5-5.7
	C804.9,501.6,806.2,502.4,807.6,504.8z"/>
<linearGradient id="XMLID_36_" gradientUnits="userSpaceOnUse" x1="909.1182" y1="566.7931" x2="909.1182" y2="551.6178">
	<stop  offset="0" style="stop-color:#A3CC39"/>
	<stop  offset="1" style="stop-color:#74B248"/>
</linearGradient>
<path id="XMLID_5_" class="st41" d="M901.7,565c0,0,0.5-3.7-2-7c0,0,3.3,1.2,5.1,6.1c0,0,0.3-5.6-2.5-9.8c0,0,3.1,0.2,6.4,7.5
	c0,0-0.5-6.3-0.5-10.1c0,0,1.3,6.3,3.1,8.9c0,0,0.8-4.9,3.6-6.6c0,0-1.3,3-0.8,6.3c0,0,1.5-2.3,5.3-3.3c0,0-4.7,3.7-3.9,6.5
	c0,0,2.1-2.1,4.2-3.7c0,0-0.7,3.9-3.5,5.3c1.5-0.4,4-0.9,5.5-1.3l-4.7,3h-16.6c-0.7-1.6-2.2-4.8-3.5-5.7
	C898.9,561.8,900.3,562.6,901.7,565z"/>
<linearGradient id="XMLID_37_" gradientUnits="userSpaceOnUse" x1="431.0416" y1="461.7941" x2="431.0416" y2="445.5468">
	<stop  offset="0" style="stop-color:#A3CC39"/>
	<stop  offset="1" style="stop-color:#74B248"/>
</linearGradient>
<path id="XMLID_214_" class="st42" d="M423.6,459.8c0,0,0.5-4-2-7.5c0,0,3.3,1.3,5.1,6.5c0,0,0.3-6-2.5-10.5c0,0,3.1,0.3,6.4,8
	c0,0-0.5-6.8-0.5-10.8c0,0,1.3,6.8,3.1,9.5c0,0,0.8-5.3,3.6-7c0,0-1.3,3.3-0.8,6.8c0,0,1.5-2.5,5.3-3.5c0,0-4.7,4-3.9,7
	c0,0,2.1-2.2,4.2-4c0,0-0.7,4.1-3.5,5.6c1.5-0.4,4-1,5.5-1.4l-4.7,3.2h-16.6c-0.7-1.7-2.2-5.1-3.5-6.1
	C420.8,456.4,422.2,457.3,423.6,459.8z"/>
<linearGradient id="XMLID_38_" gradientUnits="userSpaceOnUse" x1="40.4278" y1="567.3291" x2="40.4278" y2="551.0818">
	<stop  offset="0" style="stop-color:#A3CC39"/>
	<stop  offset="1" style="stop-color:#74B248"/>
</linearGradient>
<path id="XMLID_11_" class="st43" d="M33,565.4c0,0,0.5-4-2-7.5c0,0,3.3,1.3,5.1,6.5c0,0,0.3-6-2.5-10.5c0,0,3.1,0.3,6.4,8
	c0,0-0.5-6.8-0.5-10.8c0,0,1.3,6.8,3.1,9.5c0,0,0.8-5.3,3.6-7c0,0-1.3,3.3-0.8,6.8c0,0,1.5-2.5,5.3-3.5c0,0-4.7,4-3.9,7
	c0,0,2.1-2.2,4.2-4c0,0-0.7,4.1-3.5,5.6c1.5-0.4,4-1,5.5-1.4l-4.7,3.2H31.6c-0.7-1.7-2.2-5.1-3.5-6.1
	C30.2,561.9,31.6,562.9,33,565.4z"/>
<linearGradient id="XMLID_39_" gradientUnits="userSpaceOnUse" x1="200.5704" y1="505.5038" x2="200.5704" y2="489.2565">
	<stop  offset="0" style="stop-color:#A3CC39"/>
	<stop  offset="1" style="stop-color:#74B248"/>
</linearGradient>
<path id="XMLID_8_" class="st44" d="M193.1,503.5c0,0,0.5-4-2-7.5c0,0,3.3,1.3,5.1,6.5c0,0,0.3-6-2.5-10.5c0,0,3.1,0.3,6.4,8
	c0,0-0.5-6.8-0.5-10.8c0,0,1.3,6.8,3.1,9.5c0,0,0.8-5.3,3.6-7c0,0-1.3,3.3-0.8,6.8c0,0,1.5-2.5,5.3-3.5c0,0-4.7,4-3.9,7
	c0,0,2.1-2.2,4.2-4c0,0-0.7,4.1-3.5,5.6c1.5-0.4,4-1,5.5-1.4l-4.7,3.2h-16.6c-0.7-1.7-2.2-5.1-3.5-6.1
	C190.4,500.1,191.7,501,193.1,503.5z"/>
<linearGradient id="XMLID_40_" gradientUnits="userSpaceOnUse" x1="366.5423" y1="467.1951" x2="366.5423" y2="457.8257">
	<stop  offset="0" style="stop-color:#A3CC39"/>
	<stop  offset="1" style="stop-color:#74B248"/>
</linearGradient>
<path id="XMLID_213_" class="st45" d="M362.2,466.1c0,0,0.3-2.3-1.2-4.3c0,0,1.9,0.7,2.9,3.8c0,0,0.1-3.5-1.5-6.1
	c0,0,1.8,0.1,3.7,4.6c0,0-0.3-3.9-0.3-6.2c0,0,0.7,3.9,1.8,5.5c0,0,0.4-3,2.1-4c0,0-0.7,1.9-0.4,3.9c0,0,0.9-1.4,3.1-2
	c0,0-2.7,2.3-2.3,4c0,0,1.2-1.3,2.4-2.3c0,0-0.4,2.4-2,3.3c0.9-0.2,2.3-0.6,3.2-0.8l-2.7,1.9h-9.6c-0.4-1-1.3-3-2-3.5
	C360.7,464.1,361.5,464.6,362.2,466.1z"/>
<linearGradient id="XMLID_41_" gradientUnits="userSpaceOnUse" x1="545.4772" y1="427.8902" x2="545.4772" y2="418.5208">
	<stop  offset="0" style="stop-color:#A3CC39"/>
	<stop  offset="1" style="stop-color:#74B248"/>
</linearGradient>
<path id="XMLID_210_" class="st46" d="M541.2,426.8c0,0,0.3-2.3-1.2-4.3c0,0,1.9,0.7,2.9,3.8c0,0,0.1-3.5-1.5-6.1
	c0,0,1.8,0.1,3.7,4.6c0,0-0.3-3.9-0.3-6.2c0,0,0.7,3.9,1.8,5.5c0,0,0.4-3,2.1-4c0,0-0.7,1.9-0.4,3.9c0,0,0.9-1.4,3.1-2
	c0,0-2.7,2.3-2.3,4c0,0,1.2-1.3,2.4-2.3c0,0-0.4,2.4-2,3.3c0.9-0.2,2.3-0.6,3.2-0.8l-2.7,1.9h-9.6c-0.4-1-1.3-3-2-3.5
	C539.6,424.8,540.4,425.3,541.2,426.8z"/>
<linearGradient id="XMLID_42_" gradientUnits="userSpaceOnUse" x1="487.3123" y1="425.1359" x2="487.3123" y2="412.2826">
	<stop  offset="0" style="stop-color:#A3CC39"/>
	<stop  offset="1" style="stop-color:#74B248"/>
</linearGradient>
<path id="XMLID_209_" class="st47" d="M481.4,423.6c0,0,0.4-3.2-1.6-5.9c0,0,2.6,1,4,5.2c0,0,0.2-4.8-2-8.3c0,0,2.4,0.2,5,6.3
	c0,0-0.4-5.4-0.4-8.5c0,0,1,5.4,2.4,7.5c0,0,0.6-4.2,2.8-5.6c0,0-1,2.6-0.6,5.4c0,0,1.2-2,4.2-2.8c0,0-3.7,3.1-3.1,5.5
	c0,0,1.7-1.8,3.3-3.1c0,0-0.6,3.3-2.8,4.5c1.2-0.3,3.2-0.8,4.4-1.1l-3.7,2.5h-13.1c-0.5-1.3-1.7-4.1-2.8-4.8
	C479.2,420.9,480.3,421.6,481.4,423.6z"/>
<linearGradient id="XMLID_43_" gradientUnits="userSpaceOnUse" x1="116.2221" y1="490.2567" x2="116.2221" y2="477.4034">
	<stop  offset="0" style="stop-color:#A3CC39"/>
	<stop  offset="1" style="stop-color:#74B248"/>
</linearGradient>
<path id="XMLID_10_" class="st48" d="M110.3,488.7c0,0,0.4-3.2-1.6-5.9c0,0,2.6,1,4,5.2c0,0,0.2-4.8-2-8.3c0,0,2.4,0.2,5,6.3
	c0,0-0.4-5.4-0.4-8.5c0,0,1,5.4,2.4,7.5c0,0,0.6-4.2,2.8-5.6c0,0-1,2.6-0.6,5.4c0,0,1.2-2,4.2-2.8c0,0-3.7,3.1-3.1,5.5
	c0,0,1.7-1.8,3.3-3.1c0,0-0.6,3.3-2.8,4.5c1.2-0.3,3.2-0.8,4.4-1.1l-3.7,2.5h-13.1c-0.5-1.3-1.7-4.1-2.8-4.8
	C108.1,486,109.2,486.7,110.3,488.7z"/>
<linearGradient id="XMLID_44_" gradientUnits="userSpaceOnUse" x1="363.0745" y1="554.5774" x2="363.0745" y2="541.724">
	<stop  offset="0" style="stop-color:#A3CC39"/>
	<stop  offset="1" style="stop-color:#74B248"/>
</linearGradient>
<path id="XMLID_208_" class="st49" d="M357.2,553c0,0,0.4-3.2-1.6-5.9c0,0,2.6,1,4,5.2c0,0,0.2-4.8-2-8.3c0,0,2.4,0.2,5,6.3
	c0,0-0.4-5.4-0.4-8.5c0,0,1,5.4,2.4,7.5c0,0,0.6-4.2,2.8-5.6c0,0-1,2.6-0.6,5.4c0,0,1.2-2,4.2-2.8c0,0-3.7,3.1-3.1,5.5
	c0,0,1.7-1.8,3.3-3.1c0,0-0.6,3.3-2.8,4.5c1.2-0.3,3.2-0.8,4.4-1.1l-3.7,2.5h-13.1c-0.5-1.3-1.7-4.1-2.8-4.8
	C355,550.3,356.1,551.1,357.2,553z"/>
<linearGradient id="XMLID_45_" gradientUnits="userSpaceOnUse" x1="559.4798" y1="520.2436" x2="559.4798" y2="507.3903">
	<stop  offset="0" style="stop-color:#A3CC39"/>
	<stop  offset="1" style="stop-color:#74B248"/>
</linearGradient>
<path id="XMLID_205_" class="st50" d="M553.6,518.7c0,0,0.4-3.2-1.6-5.9c0,0,2.6,1,4,5.2c0,0,0.2-4.8-2-8.3c0,0,2.4,0.2,5,6.3
	c0,0-0.4-5.4-0.4-8.5c0,0,1,5.4,2.4,7.5c0,0,0.6-4.2,2.8-5.6c0,0-1,2.6-0.6,5.4c0,0,1.2-2,4.2-2.8c0,0-3.7,3.1-3.1,5.5
	c0,0,1.7-1.8,3.3-3.1c0,0-0.6,3.3-2.8,4.5c1.2-0.3,3.2-0.8,4.4-1.1l-3.7,2.5h-13.1c-0.5-1.3-1.7-4.1-2.8-4.8
	C551.4,516,552.5,516.7,553.6,518.7z"/>
<linearGradient id="XMLID_46_" gradientUnits="userSpaceOnUse" x1="150.4512" y1="578.0056" x2="150.4512" y2="565.1523">
	<stop  offset="0" style="stop-color:#A3CC39"/>
	<stop  offset="1" style="stop-color:#74B248"/>
</linearGradient>
<path id="XMLID_12_" class="st51" d="M144.6,576.5c0,0,0.4-3.2-1.6-5.9c0,0,2.6,1,4,5.2c0,0,0.2-4.8-2-8.3c0,0,2.4,0.2,5,6.3
	c0,0-0.4-5.4-0.4-8.5c0,0,1,5.4,2.4,7.5c0,0,0.6-4.2,2.8-5.6c0,0-1,2.6-0.6,5.4c0,0,1.2-2,4.2-2.8c0,0-3.7,3.1-3.1,5.5
	c0,0,1.7-1.8,3.3-3.1c0,0-0.6,3.3-2.8,4.5c1.2-0.3,3.2-0.8,4.4-1.1l-3.7,2.5h-13.1c-0.5-1.3-1.7-4.1-2.8-4.8
	C142.4,573.7,143.5,574.5,144.6,576.5z"/>
<linearGradient id="XMLID_47_" gradientUnits="userSpaceOnUse" x1="250.4512" y1="537.0322" x2="250.4512" y2="524.179">
	<stop  offset="0" style="stop-color:#A3CC39"/>
	<stop  offset="1" style="stop-color:#74B248"/>
</linearGradient>
<path id="XMLID_9_" class="st52" d="M244.6,535.5c0,0,0.4-3.2-1.6-5.9c0,0,2.6,1,4,5.2c0,0,0.2-4.8-2-8.3c0,0,2.4,0.2,5,6.3
	c0,0-0.4-5.4-0.4-8.5c0,0,1,5.4,2.4,7.5c0,0,0.6-4.2,2.8-5.6c0,0-1,2.6-0.6,5.4c0,0,1.2-2,4.2-2.8c0,0-3.7,3.1-3.1,5.5
	c0,0,1.7-1.8,3.3-3.1c0,0-0.6,3.3-2.8,4.5c1.2-0.3,3.2-0.8,4.4-1.1l-3.7,2.5h-13.1c-0.5-1.3-1.7-4.1-2.8-4.8
	C242.4,532.8,243.5,533.5,244.6,535.5z"/>
<linearGradient id="XMLID_48_" gradientUnits="userSpaceOnUse" x1="585.4945" y1="578.11" x2="585.4945" y2="565.2566">
	<stop  offset="0" style="stop-color:#A3CC39"/>
	<stop  offset="1" style="stop-color:#74B248"/>
</linearGradient>
<path id="XMLID_204_" class="st53" d="M579.6,576.6c0,0,0.4-3.2-1.6-5.9c0,0,2.6,1,4,5.2c0,0,0.2-4.8-2-8.3c0,0,2.4,0.2,5,6.3
	c0,0-0.4-5.4-0.4-8.5c0,0,1,5.4,2.4,7.5c0,0,0.6-4.2,2.8-5.6c0,0-1,2.6-0.6,5.4c0,0,1.2-2,4.2-2.8c0,0-3.7,3.1-3.1,5.5
	c0,0,1.7-1.8,3.3-3.1c0,0-0.6,3.3-2.8,4.5c1.2-0.3,3.2-0.8,4.4-1.1l-3.7,2.5h-13.1c-0.5-1.3-1.7-4.1-2.8-4.8
	C577.4,573.8,578.5,574.6,579.6,576.6z"/>
<linearGradient id="XMLID_49_" gradientUnits="userSpaceOnUse" x1="565.8555" y1="486.2345" x2="565.8555" y2="473.3812">
	<stop  offset="0" style="stop-color:#A3CC39"/>
	<stop  offset="1" style="stop-color:#74B248"/>
</linearGradient>
<path id="XMLID_203_" class="st54" d="M560,484.7c0,0,0.4-3.2-1.6-5.9c0,0,2.6,1,4,5.2c0,0,0.2-4.8-2-8.3c0,0,2.4,0.2,5,6.3
	c0,0-0.4-5.4-0.4-8.5c0,0,1,5.4,2.4,7.5c0,0,0.6-4.2,2.8-5.6c0,0-1,2.6-0.6,5.4c0,0,1.2-2,4.2-2.8c0,0-3.7,3.1-3.1,5.5
	c0,0,1.7-1.8,3.3-3.1c0,0-0.6,3.3-2.8,4.5c1.2-0.3,3.2-0.8,4.4-1.1l-3.7,2.5h-13.1c-0.5-1.3-1.7-4.1-2.8-4.8
	C557.8,482,558.9,482.7,560,484.7z"/>
</svg>
