<?xml version="1.0" encoding="utf-8"?>
<!-- Generator: Adobe Illustrator 19.0.0, SVG Export Plug-In . SVG Version: 6.00 Build 0)  -->
<svg version="1.1" id="Layer_1" xmlns="http://www.w3.org/2000/svg" xmlns:xlink="http://www.w3.org/1999/xlink" x="0px" y="0px"
	 viewBox="0 -20.9 1280 520" style="enable-background:new 0 -20.9 1280 520;" xml:space="preserve">
<style type="text/css">
	.st0{fill:url(#XMLID_3_);}
	.st1{fill:url(#XMLID_5_);}
	.st2{fill:url(#XMLID_6_);}
	.st3{fill:url(#XMLID_7_);}
	.st4{fill:url(#XMLID_8_);}
	.st5{fill:url(#XMLID_9_);}
	.st6{fill:url(#XMLID_10_);}
	.st7{fill:url(#XMLID_11_);}
	.st8{fill:url(#XMLID_12_);}
	.st9{fill:url(#XMLID_13_);}
</style>
<linearGradient id="XMLID_3_" gradientUnits="userSpaceOnUse" x1="640" y1="1040.6183" x2="640" y2="192.6182" gradientTransform="matrix(1 0 0 -1 0 798.2)">
	<stop  offset="0" style="stop-color:#9FC7D3"/>
	<stop  offset="0.3154" style="stop-color:#C0D5DF"/>
	<stop  offset="0.7674" style="stop-color:#E9E6EE"/>
	<stop  offset="1" style="stop-color:#F9EDF4"/>
</linearGradient>
<rect id="XMLID_411_" y="-216.5" class="st0" width="1280" height="848"/>
<linearGradient id="XMLID_5_" gradientUnits="userSpaceOnUse" x1="241.4848" y1="591.6534" x2="241.4848" y2="644.2568" gradientTransform="matrix(1 0 0 -1 0 798.2)">
	<stop  offset="0" style="stop-color:#9FC7D3"/>
	<stop  offset="0.3154" style="stop-color:#C0D5DF"/>
	<stop  offset="0.7674" style="stop-color:#E9E6EE"/>
	<stop  offset="1" style="stop-color:#F9EDF4"/>
</linearGradient>
<path id="XMLID_784_" class="st1" d="M293.3,185.1c0.3-1-0.4-2-1.5-2.3c-0.4-0.1-0.8-0.1-1.3-0.2c-0.2-0.1-0.4,0-0.7,0
	c-0.3-0.2-0.6-0.3-1-0.3c-0.1-0.1-0.2-0.2-0.4-0.3c-1-0.7-2.2-0.8-3.3-0.5H285c-0.2-0.2-0.4-0.4-0.6-0.5c-0.1-0.1-0.2-0.1-0.4-0.2
	c-0.4-0.2-0.9-0.5-1.3-0.5c-0.4-0.6-1-1.2-1.7-1.2h-0.5c-0.1,0-0.1,0.2-0.2,0.3l-0.1,0.1c-0.1-0.2-0.3-0.3-0.5-0.4
	c-0.1-0.1-0.2-0.1-0.4-0.1c-0.1-0.1-0.3-0.1-0.5-0.2c-0.1,0-0.2-0.1-0.3-0.1c0.3-0.8,0.1-1.6-0.5-2.2c-0.1-0.1-0.1-0.1-0.2-0.2
	c-0.8-0.8-2.1-1.4-2.9-0.6v-0.5h-0.5c-0.4,0-0.7,0-1,0.2c-0.2-0.1-0.5-0.2-0.8-0.2h-0.4c-0.1,0-0.2,0.2-0.2,0.2
	c-0.3-0.2-0.7-0.2-1.2-0.2h-0.4c-0.1,0-0.2,0.1-0.4,0.1c0-0.3-0.1-0.5-0.3-0.7c-0.1-0.1-0.1-0.2-0.2-0.3c-0.2-0.5-0.8-0.8-1.3-1
	c-0.5-0.1-1.2-0.1-1.7,0.2c-0.1,0-0.1,0.1-0.2,0.2h-0.1c-0.2,0.1-0.3,0.1-0.5,0.2c0-0.1,0-0.3-0.1-0.4c-0.1-0.8-0.6-1.5-1.1-2.1
	c-0.3-0.4-0.9-0.6-1.4-0.6c-0.1-0.1-0.3-0.3-0.5-0.4s-0.3-0.2-0.5-0.3c-0.5-0.3-1.1-0.4-1.7-0.2c0,0-0.1,0-0.1,0.1
	c-0.1-0.1-0.3-0.1-0.4-0.1c-0.4-0.1-0.9-0.1-1.3,0c-0.1-0.1-0.2-0.2-0.3-0.3l-0.3-0.3c-0.1-0.1-0.3-0.3-0.5-0.4
	c-0.2-0.4-0.5-0.7-0.8-0.9c-0.5-0.3-1.1-0.4-1.7-0.2c-0.1,0-0.1,0.1-0.2,0.1c-0.1-0.1-0.1-0.3-0.2-0.4c-0.2-0.3-0.4-0.6-0.8-0.8
	c-0.3-0.2-0.7-0.4-1.1-0.5c-0.3,0-0.5-0.1-0.8-0.1c-1.1-0.8-2.5-1.3-4-1.3c-1.6,0-3,0.5-4.2,1.5c-0.1,0-0.1,0-0.2,0
	c-0.3,0-0.6,0.1-0.9,0.2c-0.7-0.3-1.4-0.2-2.1,0.2c-0.1,0.1-0.1,0.1-0.2,0.1c-0.4,0.2-0.8,0.5-1,0.9c0,0,0,0,0,0.1
	c-0.8,0.3-1.3,0.8-1.5,1.5c-0.1,0-0.1,0.1-0.2,0.1c-0.1,0-0.2,0-0.2,0c-0.3-0.3-0.6-0.5-0.9-0.6c-0.4-0.1-0.8-0.3-1.3-0.4
	c-0.5-0.2-1.2,0-1.7,0.2c-0.1,0-0.1,0.1-0.2,0.1c-0.3,0-0.7,0.1-1,0.3c-0.6,0.4-1.3,0.8-2,1.1c-0.4,0.2-0.8,0.8-1,1.2
	c-0.6,0.1-1.1,0.4-1.3,1c-0.3,0.7-0.5,1.4-0.6,2.2c-0.3,0-0.5,0.1-0.8,0.2c-0.3-0.1-0.6,0-1,0c-0.5,0.1-1,0.2-1.5,0.3
	c-0.5,0.1-1,0.6-1.3,1c-0.1,0.2-0.2,0.3-0.2,0.5c-0.2,0.1-0.3,0.3-0.4,0.5c-0.1,0-0.1,0.1-0.2,0.1c-0.5-0.1-1.1-0.1-1.5,0.2
	c-0.4,0-0.8,0.1-1.1,0.3c-0.3,0.2-0.5,0.4-0.7,0.7c-0.1,0-0.2,0-0.3,0c-0.4,0-0.9,0.1-1.2,0.4c-0.4,0.1-0.9,0.3-1.2,0.6
	c-0.3,0.3-0.5,0.7-0.6,1.1c-0.1,0-0.2-0.1-0.3-0.1c-0.2,0-0.4-0.1-0.6-0.1c-0.4,0-0.8,0.1-1.1,0.3c-0.4,0.2-0.8,0.3-1.2,0.5
	s-0.8,0.7-0.9,1.1c0,0,0,0-0.1,0c-0.5-0.4-1.2-0.6-1.9-0.5c-0.5-0.1-1.1,0-1.5,0.3c-0.1-0.1-0.2-0.1-0.2-0.2
	c-0.5-0.3-1.1-0.4-1.7-0.2c-0.2,0.1-0.4,0.1-0.6,0.2c-0.2,0-0.4,0-0.5,0c-0.3,0-0.7,0.1-1.1,0.3c-0.4,0-0.9,0.1-1.3,0.2
	c-1.3,0.6-2.5,0.7-3.6,1.5v-0.6h-0.4c-0.6,0-1.1,0.7-1.5,1.1c0,0,0,0.2-0.1,0.2c-0.7-0.2-1.6,0-2.3,0.3c-0.4-0.1-0.8-0.1-1.2,0
	c-0.2,0.1-0.5,0.2-0.7,0.2c-0.1,0-0.1,0.1-0.2,0.1c-0.1,0-0.2,0-0.3-0.1c-0.4-0.2-1-0.4-1.5-0.2c-0.4,0.1-0.7,0.2-1,0.2h103.7V185.1
	z M265.5,178.4c0.1,0,0.2,0,0.3-0.1c0,0.1,0.1,0.2,0.1,0.4c-0.2,0.1-0.4,0.1-0.6,0.2C265.3,178.8,265.4,178.6,265.5,178.4z"/>
<linearGradient id="XMLID_6_" gradientUnits="userSpaceOnUse" x1="865.7349" y1="432.6353" x2="865.7349" y2="485.2379" gradientTransform="matrix(1 0 0 -1 0 798.2)">
	<stop  offset="0" style="stop-color:#9FC7D3"/>
	<stop  offset="0.3154" style="stop-color:#C0D5DF"/>
	<stop  offset="0.7674" style="stop-color:#E9E6EE"/>
	<stop  offset="1" style="stop-color:#F9EDF4"/>
</linearGradient>
<path id="XMLID_1_" class="st2" d="M917.2,344.1c0.3-1-0.4-2-1.5-2.3c-0.4-0.1-0.8-0.1-1.3-0.2c-0.2-0.1-0.4,0-0.7,0
	c-0.3-0.2-0.6-0.3-1-0.3c-0.1-0.1-0.2-0.2-0.4-0.3c-1-0.7-2.2-0.8-3.3-0.5h-0.1c-0.2-0.2-0.4-0.4-0.6-0.5c-0.1-0.1-0.2-0.1-0.4-0.2
	c-0.4-0.2-0.9-0.6-1.3-0.5c-0.4-0.6-1-1.2-1.7-1.2h-0.5c-0.1,0-0.1,0.3-0.2,0.3l-0.1,0.1c-0.1-0.2-0.3-0.3-0.5-0.4
	c-0.1-0.1-0.2-0.1-0.4-0.1c-0.1-0.1-0.3-0.1-0.5-0.2c-0.1,0-0.2-0.1-0.3-0.1c0.3-0.8,0.1-1.6-0.5-2.2c-0.1-0.1-0.1-0.1-0.2-0.2
	c-0.8-0.8-2.1-1.4-2.9-0.6v-0.5h-0.5c-0.4,0-0.7,0-1,0.2c-0.2-0.1-0.5-0.2-0.8-0.2h-0.4c-0.1,0-0.2,0.2-0.2,0.2
	c-0.3-0.2-0.7-0.2-1.2-0.2h-0.4c-0.1,0-0.2,0.1-0.4,0.1c0-0.3-0.1-0.5-0.3-0.7c-0.1-0.1-0.1-0.2-0.2-0.3c-0.2-0.5-0.8-0.8-1.3-1
	c-0.5-0.1-1.2-0.1-1.7,0.2c-0.1,0-0.1,0.1-0.2,0.2h-0.1c-0.2,0.1-0.3,0.1-0.5,0.2c0-0.1,0-0.3-0.1-0.4c-0.1-0.8-0.6-1.5-1.1-2.1
	c-0.3-0.4-0.9-0.6-1.4-0.6c-0.1-0.1-0.3-0.3-0.5-0.4c-0.2-0.1-0.3-0.2-0.5-0.3c-0.5-0.3-1.1-0.4-1.7-0.2c0,0-0.1,0-0.1,0.1
	c-0.1-0.1-0.3-0.1-0.4-0.1c-0.4-0.1-0.9-0.1-1.3,0c-0.1-0.1-0.2-0.2-0.3-0.3l-0.3-0.3c-0.1-0.1-0.3-0.3-0.5-0.4
	c-0.2-0.4-0.5-0.7-0.8-0.9c-0.5-0.3-1.1-0.4-1.7-0.2c-0.1,0-0.1,0.1-0.2,0.1c-0.1-0.1-0.1-0.3-0.2-0.4c-0.2-0.3-0.4-0.6-0.8-0.8
	c-0.3-0.2-0.7-0.4-1.1-0.5c-0.3,0-0.5-0.1-0.8-0.1c-1.1-0.8-2.5-1.3-4-1.3c-1.6,0-3,0.5-4.2,1.5c-0.1,0-0.1,0-0.2,0
	c-0.3,0-0.6,0.1-0.9,0.2c-0.7-0.3-1.4-0.2-2.1,0.2c-0.1,0-0.1,0.1-0.2,0.1c-0.4,0.2-0.8,0.5-1,0.9c0,0,0,0,0,0.1
	c-0.8,0.3-1.3,0.8-1.5,1.5c-0.1,0-0.1,0.1-0.2,0.1c-0.1,0-0.2,0-0.2,0c-0.3-0.3-0.6-0.5-0.9-0.6c-0.4-0.1-0.8-0.3-1.3-0.4
	c-0.5-0.2-1.2,0-1.7,0.2c-0.1,0-0.1,0.1-0.2,0.1c-0.3,0-0.7,0.1-1,0.3c-0.6,0.4-1.3,0.8-2,1.1c-0.4,0.2-0.8,0.8-1,1.2
	c-0.6,0.1-1.1,0.4-1.3,1c-0.3,0.7-0.5,1.4-0.6,2.2c-0.3,0-0.5,0.1-0.8,0.2c-0.3-0.1-0.6,0-1,0c-0.5,0.1-1,0.2-1.5,0.3s-1,0.6-1.3,1
	c-0.1,0.2-0.2,0.3-0.2,0.5c-0.2,0.1-0.3,0.3-0.4,0.5c-0.1,0-0.1,0.1-0.2,0.1c-0.5-0.1-1.1-0.1-1.5,0.2c-0.4,0-0.8,0.1-1.1,0.3
	s-0.5,0.4-0.7,0.7c-0.1,0-0.2,0-0.3,0c-0.4,0-0.9,0.1-1.2,0.4c-0.4,0.1-0.9,0.3-1.2,0.6s-0.5,0.7-0.6,1.1c-0.1,0-0.2-0.1-0.3-0.1
	c-0.2,0-0.4-0.1-0.6-0.1c-0.4,0-0.8,0.1-1.1,0.3c-0.4,0.2-0.8,0.3-1.2,0.5s-0.8,0.7-0.9,1.1c0,0,0,0-0.1,0c-0.5-0.4-1.2-0.6-1.9-0.5
	c-0.5-0.1-1.1,0-1.5,0.3c-0.1-0.1-0.2-0.1-0.2-0.2c-0.5-0.3-1.1-0.4-1.7-0.2c-0.2,0.1-0.4,0.1-0.6,0.2c-0.2,0-0.4,0-0.5,0
	c-0.3,0-0.7,0.1-1.1,0.3c-0.4,0-0.9,0.1-1.3,0.2c-1.3,0.6-2.5,0.7-3.6,1.5v-0.6h0.3c-0.6,0-1.1,0.7-1.5,1.2c0,0,0,0.2-0.1,0.2
	c-0.7-0.2-1.6,0-2.3,0.3c-0.4-0.1-0.8-0.1-1.2,0c-0.2,0.1-0.5,0.2-0.7,0.2c-0.1,0-0.1,0.1-0.2,0.1c-0.1,0-0.2,0-0.3-0.1
	c-0.4-0.2-1-0.4-1.5-0.2c-0.4,0.1-0.7,0.2-1,0.2h103V344.1z M889.3,337.4c0.1,0,0.2,0,0.3-0.1c0,0.1,0.1,0.2,0.1,0.4
	c-0.2,0.1-0.4,0.1-0.6,0.2C889.2,337.8,889.3,337.6,889.3,337.4z"/>
<linearGradient id="XMLID_7_" gradientUnits="userSpaceOnUse" x1="654.95" y1="641.1952" x2="654.95" y2="709.6489" gradientTransform="matrix(1 0 0 -1 0 798.2)">
	<stop  offset="0" style="stop-color:#9FC7D3"/>
	<stop  offset="0.3154" style="stop-color:#C0D5DF"/>
	<stop  offset="0.7674" style="stop-color:#E9E6EE"/>
	<stop  offset="1" style="stop-color:#F9EDF4"/>
</linearGradient>
<path id="XMLID_783_" class="st3" d="M733,129.1c-0.3,0-0.5-0.4-0.8-0.7c-1.5-1.4-3.4-2.2-5.4-2.5c-1.6-1.5-3.6-2.3-5.9-2.3
	c-2.5,0-4.8,1.1-6.4,2.9c-0.2-1.4-1.3-2.5-2.7-2.5c-0.6,0-1.1,0.2-1.5,0.5c-0.8-4-4.2-7-8.2-7c-1,0-2,0.2-2.9,0.6c0.6-1.2,1-2.5,1-4
	c0-4.6-3.6-8.4-7.9-8.4c-2.2,0-4.2,1-5.6,2.5c-0.5-0.6-1.2-1-2-1.3c0.1-0.9,0.1-2-0.5-2.7c-0.2-0.3-0.5-0.7-0.7-1
	c-0.6-0.9-1.3-1.5-2.4-1.8c-0.1,0-0.2,0-0.3-0.1c0.2-1.2-0.2-2.4-1.1-3.4c-0.2-0.3-0.5-0.5-0.7-0.8c-0.3-0.3-0.7-0.6-1.1-0.8
	c-0.4-0.5-0.9-1-1.5-1.5c0-0.3,0-0.6-0.1-0.9c-0.6-2-2.8-3.5-4.9-2.8c-0.6,0.2-1.1,0.4-1.7,0.6l0,0c-0.5-0.1-1.1-0.1-1.6-0.1
	c-0.2,0-0.3,0-0.5,0c-0.6-0.5-1.4-0.9-2.5-0.9c-2,0-3.2,1.2-3.7,2.7c-1.4,0.9-2.6,1.9-3.6,3.3c-0.2,0-0.4-0.1-0.6-0.1
	c-3.2,0-4.4,3.1-3.6,5.5c-1.2,0-2.2,0.6-2.9,1.6c-1.8-2.3-4.5-3.7-7.6-3.7c-5.3,0-9.6,4.3-9.9,9.8c-0.4-0.1-0.9-0.2-1.4-0.2
	c-2.2,0-3.5,1.5-3.8,3.2c-0.3,0-0.7,0-1,0c-4.8,0-9,2.8-11.1,7c-0.7-0.7-1.7-1.1-2.7-1.1c-1.7,0-3.1,1.1-3.8,2.6
	c-0.5-0.3-1.1-0.5-1.9-0.5c-0.6-1.1-1.7-2-3.4-2c-2.9,0-4.2,2.6-3.8,4.8c-0.6-0.4-1.3-0.6-2.1-0.6c-1.3,0-2.2,0.5-2.9,1.2
	c-1.1,0-2.1,0.2-3,0.8c-0.1,0-0.1,0.1-0.2,0.1c-0.4-0.1-0.8-0.2-1.3-0.2c-0.8,0-1.4,0.2-1.9,0.5c-0.3,0-0.6,0.1-0.8,0.1
	c-0.5,0.1-1,0.2-1.5,0.3c-1.4,0.3-2.9,1.5-3.6,2.8c-0.1,0.2-0.1,0.4-0.2,0.7c-0.6-0.8-1.9-1.5-2.9-1.5c-1.4,0-2.4,1.4-3,1.4H733
	V129.1z"/>
<linearGradient id="XMLID_8_" gradientUnits="userSpaceOnUse" x1="1063.9501" y1="707.1952" x2="1063.9501" y2="775.6489" gradientTransform="matrix(1 0 0 -1 0 798.2)">
	<stop  offset="0" style="stop-color:#9FC7D3"/>
	<stop  offset="0.3154" style="stop-color:#C0D5DF"/>
	<stop  offset="0.7674" style="stop-color:#E9E6EE"/>
	<stop  offset="1" style="stop-color:#F9EDF4"/>
</linearGradient>
<path id="XMLID_4_" class="st4" d="M1142,63.1c-0.3,0-0.5-0.4-0.8-0.7c-1.5-1.4-3.4-2.2-5.4-2.5c-1.6-1.5-3.6-2.3-5.9-2.3
	c-2.5,0-4.8,1.1-6.4,2.9c-0.2-1.4-1.3-2.5-2.7-2.5c-0.6,0-1.1,0.2-1.5,0.5c-0.8-4-4.2-7-8.2-7c-1,0-2,0.2-2.9,0.6c0.6-1.2,1-2.5,1-4
	c0-4.6-3.6-8.4-7.9-8.4c-2.2,0-4.2,1-5.6,2.5c-0.5-0.6-1.2-1-2-1.3c0.1-0.9,0.1-2-0.5-2.7c-0.2-0.3-0.5-0.7-0.7-1
	c-0.6-0.9-1.3-1.5-2.4-1.8c-0.1,0-0.2,0-0.3-0.1c0.2-1.2-0.2-2.4-1.1-3.4c-0.2-0.3-0.5-0.5-0.7-0.8c-0.3-0.3-0.7-0.6-1.1-0.8
	c-0.4-0.5-0.9-1-1.5-1.5c0-0.3,0-0.6-0.1-0.9c-0.6-2-2.8-3.5-4.9-2.8c-0.6,0.2-1.1,0.4-1.7,0.6l0,0c-0.5-0.1-1.1-0.1-1.6-0.1
	c-0.2,0-0.3,0-0.5,0c-0.6-0.5-1.4-0.9-2.5-0.9c-2,0-3.2,1.2-3.7,2.7c-1.4,0.9-2.6,1.9-3.6,3.3c-0.2,0-0.4-0.1-0.6-0.1
	c-3.2,0-4.4,3.1-3.6,5.5c-1.2,0-2.2,0.6-2.9,1.6c-1.8-2.3-4.5-3.7-7.6-3.7c-5.3,0-9.6,4.3-9.9,9.8c-0.4-0.1-0.9-0.2-1.4-0.2
	c-2.2,0-3.5,1.5-3.8,3.2c-0.3,0-0.7,0-1,0c-4.8,0-9,2.8-11.1,7c-0.7-0.7-1.7-1.1-2.7-1.1c-1.7,0-3.1,1.1-3.8,2.6
	c-0.5-0.3-1.1-0.5-1.9-0.5c-0.6-1.1-1.7-2-3.4-2c-2.9,0-4.2,2.6-3.8,4.8c-0.6-0.4-1.3-0.6-2.1-0.6c-1.3,0-2.2,0.5-2.9,1.2
	c-1.1,0-2.1,0.2-3,0.8c-0.1,0-0.1,0.1-0.2,0.1c-0.4-0.1-0.8-0.2-1.3-0.2c-0.8,0-1.4,0.2-1.9,0.5c-0.3,0-0.6,0.1-0.8,0.1
	c-0.5,0.1-1,0.2-1.5,0.3c-1.4,0.3-2.9,1.5-3.6,2.8c-0.1,0.2-0.1,0.4-0.2,0.7c-0.6-0.8-1.9-1.5-2.9-1.5c-1.4,0-2.4,1.4-3,1.4
	L1142,63.1L1142,63.1z"/>
<linearGradient id="XMLID_9_" gradientUnits="userSpaceOnUse" x1="211.2" y1="820.4513" x2="211.2" y2="867.2867" gradientTransform="matrix(1 0 0 -1 0 798.2)">
	<stop  offset="0" style="stop-color:#9FC7D3"/>
	<stop  offset="0.3154" style="stop-color:#C0D5DF"/>
	<stop  offset="0.7674" style="stop-color:#E9E6EE"/>
	<stop  offset="1" style="stop-color:#F9EDF4"/>
</linearGradient>
<path id="XMLID_779_" class="st5" d="M280-31.6c-1-1-2.3-1.6-3.7-1.8c-1.1-1-2.5-1.6-4-1.6c-1.7,0-3.2,0.7-4.3,1.9
	c-0.1-1-0.9-1.7-1.8-1.7c-0.4,0-0.7,0.1-1,0.4c-0.5-2.7-2.8-4.8-5.6-4.8c-0.7,0-1.4,0.2-2,0.4c0.4-0.8,0.7-1.7,0.7-2.7
	c0-3.1-2.4-5.7-5.4-5.7c-1.5,0-2.8,0.6-3.8,1.7c-0.4-0.4-0.8-0.7-1.3-0.8c0.1-0.6,0.1-1.3-0.3-1.8c-0.2-0.2-0.3-0.4-0.5-0.7
	c-0.4-0.6-0.9-1-1.6-1.2c-0.1,0-0.2,0-0.2,0c0.1-0.8-0.1-1.6-0.7-2.3c-0.2-0.2-0.3-0.3-0.5-0.5s-0.5-0.4-0.8-0.5
	c-0.3-0.4-0.6-0.7-1-1c0-0.2,0-0.4-0.1-0.6c-0.4-1.3-1.9-2.4-3.3-1.9c-0.4,0.1-0.8,0.2-1.2,0.4l0,0c-0.4,0-0.7-0.1-1.1-0.1
	c-0.1,0-0.2,0-0.3,0c-0.4-0.4-1-0.6-1.7-0.6c-1.4,0-2.2,0.8-2.5,1.9c-0.9,0.6-1.8,1.3-2.4,2.2c-0.1,0-0.3,0-0.4,0
	c-2.2,0-3,2.1-2.5,3.7c-0.8,0-1.5,0.4-2,1.1c-1.2-1.5-3.1-2.5-5.1-2.5c-2.1,0-4,1-5.2,2.6c-0.1-0.2-0.2-0.3-0.3-0.5
	c-0.4-0.6-0.9-1-1.6-1.2c-0.1,0-0.2,0-0.2,0c0.1-0.8-0.1-1.6-0.7-2.3c-0.2-0.2-0.3-0.3-0.5-0.5s-0.5-0.4-0.8-0.5
	c-0.3-0.4-0.6-0.7-1-1c0-0.2,0-0.4-0.1-0.6c-0.4-1.3-1.9-2.4-3.3-1.9c-0.4,0.1-0.8,0.2-1.2,0.4l0,0c-0.4,0-0.7-0.1-1.1-0.1
	c-0.1,0-0.2,0-0.3,0c-0.4-0.4-1-0.6-1.7-0.6c-1.4,0-2.2,0.8-2.5,1.9c-0.9,0.6-1.8,1.3-2.4,2.2c-0.1,0-0.3,0-0.4,0
	c-2.2,0-3,2.1-2.5,3.7c-0.8,0-1.5,0.4-2,1.1c-1.2-1.5-3.1-2.5-5.1-2.5c-3.6,0-6.5,2.9-6.7,6.6c-0.3-0.1-0.6-0.2-0.9-0.2
	c-1.5,0-2.4,1-2.6,2.2c-0.2,0-0.5,0-0.7,0c-3.3,0-6.1,1.9-7.5,4.7c-0.5-0.5-1.1-0.7-1.8-0.7c-1.1,0-2.1,0.7-2.5,1.7
	c-0.3-0.2-0.8-0.3-1.3-0.4c-0.4-0.8-1.1-1.3-2.3-1.3c-2,0-2.8,1.7-2.6,3.3c-0.4-0.3-0.9-0.4-1.5-0.4c-0.9,0-1.5,0.3-2,0.8
	c-0.7,0-1.4,0.1-2,0.5c-0.1,0-0.1,0.1-0.2,0.1c-0.3-0.1-0.6-0.1-0.9-0.1c-0.5,0-0.9,0.1-1.3,0.3c-0.2,0-0.4,0-0.6,0.1
	c-0.3,0.1-0.7,0.1-1,0.2c-1,0.2-1.9,1-2.4,1.9c-0.1,0.1-0.1,0.3-0.2,0.4c-0.4-0.5-1.3-0.8-1.9-0.8c-1,0-1.6,0.1-2.1,1.1h33h73h33
	C280.4-31.9,280.2-31.4,280-31.6z"/>
<linearGradient id="XMLID_10_" gradientUnits="userSpaceOnUse" x1="120.35" y1="718.1478" x2="120.35" y2="745.4902" gradientTransform="matrix(1 0 0 -1 0 798.2)">
	<stop  offset="0" style="stop-color:#9FC7D3"/>
	<stop  offset="0.3154" style="stop-color:#C0D5DF"/>
	<stop  offset="0.7674" style="stop-color:#E9E6EE"/>
	<stop  offset="1" style="stop-color:#F9EDF4"/>
</linearGradient>
<path id="XMLID_778_" class="st6" d="M192.5,70.8c-1.1-1-2.4-1.5-3.9-1.7c-1.1-1.1-2.6-1.6-4.3-1.6c-1.8,0-3.5,0.8-4.6,2.1
	c-0.1-1-0.9-1.8-2-1.8c-0.4,0-0.8,0.2-1.1,0.4c-0.6-2.9-3-5.1-6-5.1c-0.7,0-1.5,0.2-2.1,0.4c0.4-0.9,0.7-1.8,0.7-2.9
	c0-3.4-2.6-6.1-5.8-6.1c-1.6,0-3.1,0.7-4.1,1.8c-0.4-0.4-0.9-0.7-1.4-0.9c0.1-0.7,0.1-1.4-0.3-2c-0.2-0.2-0.4-0.5-0.5-0.7
	c-0.5-0.6-0.9-1.1-1.7-1.3c-0.1,0-0.2,0-0.3,0c0.1-0.9-0.1-1.8-0.8-2.5c-0.2-0.2-0.4-0.4-0.5-0.5c-0.2-0.2-0.5-0.4-0.8-0.6
	c-0.3-0.4-0.7-0.7-1.1-1.1c0-0.2,0-0.5-0.1-0.7c-0.5-1.4-2-2.5-3.6-2c-0.4,0.1-0.8,0.3-1.2,0.4l0,0c-0.4-0.1-0.8-0.1-1.2-0.1
	c-0.1,0-0.2,0-0.3,0c-0.4-0.4-1-0.6-1.8-0.6c-1.5,0-2.4,0.9-2.7,2c-1,0.6-1.9,1.4-2.6,2.4c-0.1,0-0.3,0-0.4,0c-2.3,0-3.2,2.3-2.6,4
	c-0.9,0-1.6,0.5-2.1,1.1c-1.3-1.6-3.3-2.7-5.5-2.7c-3.8,0-7,3.1-7.2,7.1c-0.3-0.1-0.6-0.2-1-0.2c-0.5,0-1,0.1-1.3,0.3
	c-0.3-0.2-0.7-0.3-1-0.4c-0.1-0.1-0.3-0.3-0.5-0.4s-0.3-0.2-0.5-0.2c-0.5-0.3-1-0.4-1.6-0.2c0,0-0.1,0-0.1,0.1
	c-0.1-0.1-0.3-0.1-0.4-0.1c-0.4-0.1-0.9-0.1-1.3,0c-0.1-0.1-0.2-0.2-0.3-0.3l-0.2-0.2c-0.1-0.1-0.3-0.2-0.5-0.3
	c-0.2-0.3-0.4-0.6-0.8-0.8c-0.4-0.3-1.1-0.4-1.6-0.2c-0.1,0-0.1,0.1-0.2,0.1c-0.1-0.1-0.1-0.3-0.2-0.4c-0.2-0.3-0.4-0.6-0.7-0.7
	c-0.3-0.2-0.7-0.4-1.1-0.5c-0.2,0-0.5-0.1-0.7-0.1c-1.1-0.8-2.4-1.2-3.8-1.2c-1.5,0-2.9,0.5-4,1.4c-0.1,0-0.1,0-0.2,0
	c-0.3,0-0.6,0.1-0.8,0.2c-0.6-0.3-1.4-0.2-2,0.2c-0.1,0-0.1,0.1-0.2,0.1c-0.4,0.2-0.7,0.5-1,0.8c0,0,0,0,0,0.1
	c-0.7,0.2-1.2,0.8-1.4,1.5c-0.1,0-0.1,0.1-0.1,0.1c-0.1,0-0.2,0-0.2,0c-0.2-0.2-0.5-0.4-0.9-0.6c-0.4-0.1-0.8-0.3-1.2-0.4
	c-0.5-0.2-1.1,0-1.6,0.2c-0.1,0-0.1,0.1-0.2,0.1c-0.3,0-0.6,0.1-0.9,0.3c-0.6,0.4-1.2,0.8-1.9,1.1c-0.4,0.2-0.8,0.7-0.9,1.2
	c-0.5,0.1-1,0.4-1.3,0.9c-0.3,0.7-0.5,1.4-0.5,2.1c-0.2,0-0.5,0.1-0.7,0.2c-0.3-0.1-0.6,0-0.9,0c-0.5,0.1-0.9,0.2-1.4,0.3
	c-0.5,0.1-1,0.5-1.2,0.9c-0.1,0.1-0.1,0.3-0.2,0.5c-0.2,0.1-0.3,0.3-0.4,0.5c-0.1,0-0.1,0.1-0.2,0.1c-0.5-0.1-1-0.1-1.5,0.2
	c-0.4,0-0.8,0.1-1.1,0.3c-0.2,0.1-0.5,0.4-0.7,0.6c-0.1,0-0.2,0-0.3,0c-0.4,0-0.8,0.1-1.2,0.4c-0.4,0.1-0.9,0.3-1.1,0.6
	c-0.3,0.3-0.5,0.7-0.6,1.1c-0.1,0-0.2-0.1-0.3-0.1c-0.2,0-0.4,0-0.5-0.1c-0.4,0-0.7,0.1-1,0.3c-0.4,0.2-0.7,0.3-1.1,0.5
	s-0.7,0.7-0.9,1.1c0,0,0,0-0.1,0c-0.5-0.4-1.2-0.6-1.8-0.5c-0.5-0.1-1,0-1.5,0.3c-0.1-0.1-0.2-0.1-0.2-0.1c-0.5-0.2-1.1-0.4-1.6-0.2
	c-0.2,0.1-0.4,0.1-0.5,0.2c-0.2,0-0.3,0-0.5,0c-0.3,0-0.7,0.1-1,0.3c-0.4,0-0.9,0-1.3,0.2c-1.2,0.5-2.4,0.6-3.4,1.4v-0.6H56
	c-0.5,0-1.1,0.8-1.5,1.2c0,0,0,0.2-0.1,0.2c-0.7-0.2-1.5,0-2.2,0.3c-0.4-0.1-0.8-0.1-1.2,0c-0.2,0.1-0.5,0.2-0.7,0.2
	c-0.1,0-0.1,0.1-0.2,0.1c-0.1,0-0.2,0-0.2-0.1c-0.4-0.2-1-0.4-1.4-0.2c-0.4,0.1-0.7,0.2-1,0.2h32.1h66h47.6
	C192.9,71.1,192.7,71,192.5,70.8z"/>
<linearGradient id="XMLID_11_" gradientUnits="userSpaceOnUse" x1="608.4" y1="842.7087" x2="608.4" y2="802.7554" gradientTransform="matrix(1 0 0 -1 0 798.2)">
	<stop  offset="0" style="stop-color:#F9EDF4"/>
	<stop  offset="0.2326" style="stop-color:#E9E6EE"/>
	<stop  offset="0.6846" style="stop-color:#C0D5DF"/>
	<stop  offset="1" style="stop-color:#9FC7D3"/>
</linearGradient>
<path id="XMLID_776_" class="st7" d="M697.7-7.9c-0.2,0-0.4-0.1-0.7-0.4c-1.3-1.2-2.8-1.8-4.5-2c-1.3-1.2-3-1.9-4.9-1.9
	c-2.1,0-4,1-5.4,2.4c-0.2-1.2-1.1-2.1-2.3-2.1c-0.5,0-0.9,0.2-1.3,0.4c-0.7-3.4-3.5-5.9-6.9-5.9c-0.9,0-1.7,0.2-2.4,0.5
	c0.5-1,0.8-2.1,0.8-3.3c0-3.9-3-7-6.6-7c-1.9,0-3.5,0.8-4.7,2.1c-0.5-0.5-1-0.8-1.6-1.1c0.1-0.8,0.1-1.6-0.4-2.3
	c-0.2-0.3-0.4-0.6-0.6-0.8c-0.5-0.7-1.1-1.3-2-1.5c-0.1,0-0.2,0-0.3,0c0.1-1-0.1-2-0.9-2.8c-0.2-0.2-0.4-0.4-0.6-0.6
	c-0.3-0.3-0.6-0.5-0.9-0.6c-0.4-0.4-0.8-0.9-1.2-1.2c0-0.3,0-0.5-0.1-0.8c-0.5-1.7-2.3-2.9-4.1-2.3c-0.5,0.2-1,0.3-1.4,0.5l0,0
	c-0.4-0.1-0.9-0.1-1.4-0.1c-0.1,0-0.3,0-0.4,0c-0.5-0.4-1.2-0.7-2.1-0.7c-1.7,0-2.7,1-3.1,2.3c-1.2,0.7-2.2,1.6-3,2.7
	c-0.2,0-0.3-0.1-0.5-0.1c-2.7,0-3.7,2.6-3,4.6c-1,0-1.9,0.5-2.4,1.3c-1.5-1.9-3.8-3.1-6.4-3.1c-3.6,0-6.7,2.4-7.9,5.9
	c-1.1-0.7-2.3-1.2-3.7-1.2c-1.9,0-3.5,0.8-4.7,2.1c-0.5-0.5-1-0.8-1.6-1.1c0.1-0.8,0.1-1.6-0.4-2.3c-0.2-0.3-0.4-0.6-0.6-0.8
	c-0.5-0.7-1.1-1.3-2-1.5c-0.1,0-0.2,0-0.3,0c0.1-1-0.1-2-0.9-2.8c-0.2-0.2-0.4-0.4-0.6-0.6c-0.3-0.3-0.6-0.5-0.9-0.6
	c-0.4-0.4-0.8-0.9-1.2-1.2c0-0.3,0-0.5-0.1-0.8c-0.5-1.7-2.3-2.9-4.1-2.3c-0.5,0.2-1,0.3-1.4,0.5l0,0c-0.4-0.1-0.9-0.1-1.4-0.1
	c-0.1,0-0.3,0-0.4,0c-0.5-0.4-1.2-0.7-2.1-0.7c-1.7,0-2.7,1-3.1,2.3c-1.2,0.7-2.2,1.6-3,2.7c-0.2,0-0.3-0.1-0.5-0.1
	c-2.7,0-3.7,2.6-3,4.6c-1,0-1.9,0.5-2.4,1.3c-1.5-1.9-3.8-3.1-6.4-3.1c-4.4,0-8,3.6-8.3,8.2c-0.3-0.1-0.7-0.2-1.1-0.2
	c-1.9,0-2.9,1.3-3.2,2.7c-0.3,0-0.6,0-0.9,0c-4,0-7.5,2.4-9.3,5.9c-0.6-0.6-1.4-0.9-2.3-0.9c-1.4,0-2.6,0.9-3.1,2.2
	c-0.4-0.3-1-0.4-1.6-0.4c-0.5-1-1.4-1.7-2.8-1.7c-2.5,0-3.5,2.2-3.2,4c-0.5-0.3-1.1-0.5-1.8-0.5c-1.1,0-1.9,0.4-2.4,1
	c-0.9,0-1.8,0.2-2.5,0.7c-0.1,0-0.1,0.1-0.2,0.1c-0.3-0.1-0.7-0.2-1.1-0.2c-0.6,0-1.2,0.2-1.6,0.4c-0.2,0-0.5,0.1-0.7,0.1
	c-0.4,0.1-0.8,0.2-1.3,0.3c-1.2,0.3-2.4,1.1-3,2.1c-0.1,0.1-0.1,0.2-0.2,0.2H567h4.8l0.1,0.1v-0.1h73.2h52.6V-7.9z"/>
<linearGradient id="XMLID_12_" gradientUnits="userSpaceOnUse" x1="518.4999" y1="832.5527" x2="518.5" y2="792.0654" gradientTransform="matrix(1 0 0 -1 0 798.2)">
	<stop  offset="0" style="stop-color:#F9EDF4"/>
	<stop  offset="0.2326" style="stop-color:#E9E6EE"/>
	<stop  offset="0.6846" style="stop-color:#C0D5DF"/>
	<stop  offset="1" style="stop-color:#9FC7D3"/>
</linearGradient>
<path id="XMLID_773_" class="st8" d="M518.6-7.3v-0.1h-0.2C518.5-7.4,518.5-7.4,518.6-7.3z"/>
<linearGradient id="XMLID_13_" gradientUnits="userSpaceOnUse" x1="515.9999" y1="832.9937" x2="516" y2="792.4948" gradientTransform="matrix(1 0 0 -1 0 798.2)">
	<stop  offset="0" style="stop-color:#F9EDF4"/>
	<stop  offset="0.2326" style="stop-color:#E9E6EE"/>
	<stop  offset="0.6846" style="stop-color:#C0D5DF"/>
	<stop  offset="1" style="stop-color:#9FC7D3"/>
</linearGradient>
<path id="XMLID_772_" class="st9" d="M513.6-7.9h4.8c-0.6-1-1.5-1.1-2.2-1.1C515-9,514.1-7.9,513.6-7.9z"/>
</svg>
